<?xml version="1.0" encoding="UTF-8" standalone="no"?>
<svg
   xmlns:dc="http://purl.org/dc/elements/1.1/"
   xmlns:cc="http://creativecommons.org/ns#"
   xmlns:rdf="http://www.w3.org/1999/02/22-rdf-syntax-ns#"
   xmlns:svg="http://www.w3.org/2000/svg"
   xmlns="http://www.w3.org/2000/svg"
   version="1.1"
   id="svg28063"
   viewBox="0 0 200 200"
   height="200"
   width="200">
  <defs
     id="defs28065" />
  <metadata
     id="metadata28068">
    <rdf:RDF>
      <cc:Work
         rdf:about="">
        <dc:format>image/svg+xml</dc:format>
        <dc:type
           rdf:resource="http://purl.org/dc/dcmitype/StillImage" />
        <dc:title></dc:title>
      </cc:Work>
    </rdf:RDF>
  </metadata>
  <g
     transform="translate(0,-852.36216)"
     id="layer1">
    <path
       id="path3395"
       style="fill:#89c046;fill-opacity:1;fill-rule:nonzero;stroke:none"
       d="m 95.366317,1051.6027 c -1.7633,-0.5695 -19.63502,-10.7654 -27.81517,-15.9493 -1.96218,-1.233 -1.60421,-2.6383 0.87502,-3.4603 1.19322,-0.3712 3.88458,-1.5644 6.00585,-2.6516 2.13453,-1.0341 4.2558,-1.9091 4.61377,-1.9091 0.41153,0 5.18386,2.6383 10.56658,5.7937 5.84676,3.4736 10.20863,5.7009 10.818543,5.4888 1.19322,-0.2514 5.0778,-2.4792 45.42174,-25.8398 l 29.11445,-16.87732 0.14637,-43.65843 0.1591,-43.71146 -2.17431,-1.40534 c -5.75395,-3.67245 -72.34862,-41.84209 -73.130903,-41.84209 -0.71593,0 -67.16477,38.06357 -73.06455,41.89512 l -2.18757,1.35231 0.1591,43.71146 0.15909,43.65843 10.67265,6.20472 c 5.84676,3.4206 12.06474,6.629 13.77501,7.1063 5.59486,1.7102 10.51356,-0.1061 12.68786,-4.5608 1.19322,-2.4394 1.19322,-3.1554 1.19322,-45.42171 0,-32.68085 0.14636,-43.14137 0.71592,-43.65843 0.94185,-0.92806 10.92456,-0.92806 11.86587,0 0.51653,0.51759 0.67562,11.40184 0.67562,45.47477 0,43.08837 -0.053,44.94447 -1.14018,48.47107 -1.65724,5.3297 -4.6668,9.0154 -9.37337,11.3886 -3.47358,1.8163 -4.45467,2.0284 -9.79762,2.2803 -5.27667,0.2122 -6.41685,0.1061 -10.51356,-1.286 -5.38272,-1.7633 -25.11055,-12.7939 -28.9421,-16.1084 -1.405343,-1.2462 -3.115619,-3.3145 -3.831548,-4.6138 l -1.246247,-2.38639 0,-93.41551 1.246247,-2.3334 c 0.662898,-1.29928 2.06824,-3.20842 3.155392,-4.20277 2.121273,-2.12127 75.252117,-44.63952 78.977607,-45.97857 3.009549,-1.03412 6.629032,-1.08715 9.638582,0 3.88458,1.39209 76.27298,43.49933 78.71244,45.7797 1.24625,1.19322 2.79743,3.15539 3.47359,4.45467 l 1.24624,2.28037 0,93.41551 -1.29928,2.38639 c -0.67562,1.3524 -2.38643,3.3676 -3.72548,4.5608 -3.22168,2.7444 -75.51728,44.5865 -78.83176,45.6206 -3.10236,0.9418 -5.952882,0.9418 -9.002212,0 l 0,-0.053 z m 16.201273,-59.18344 c -16.002403,-2.49249 -24.964773,-9.28056 -27.390973,-20.61611 -1.49815,-7.2521 -0.83472,-8.18016 6.31078,-8.18016 5.75395,0 6.53617,0.41153 7.14603,3.83155 0.94079,4.9187 4.202833,8.85631 8.763563,10.56659 8.07409,2.99629 26.14468,2.69136 32.62781,-0.6226 4.13648,-2.06824 6.36382,-6.89413 5.11757,-11.03061 -1.28602,-4.29558 -6.52291,-6.11191 -23.30747,-8.18015 -6.46988,-0.83473 -13.82804,-2.02847 -16.30728,-2.65159 -12.953073,-3.31449 -18.441863,-9.42641 -18.282763,-20.45702 0.10606,-5.38273 1.08715,-8.53812 3.93761,-12.36967 5.59485,-7.66309 17.553573,-11.54767 33.144923,-10.83174 14.07994,0.67562 23.36051,4.45467 28.17314,11.54767 2.06824,3.00956 3.88458,7.82219 4.40164,11.70677 0.51653,4.04368 -0.56956,4.82589 -6.62897,4.82589 -4.40164,0 -6.89413,-0.88881 -6.89413,-2.54552 0,-0.35744 -0.76897,-2.28037 -1.75005,-4.18951 -3.11562,-6.27101 -8.33925,-8.39229 -20.77521,-8.39229 -13.15189,0 -18.99864,3.04933 -18.99864,9.94347 0,5.70091 2.32014,6.682 23.20141,9.78436 19.56873,2.95653 25.78671,5.02477 30.59935,10.40749 4.82589,5.34296 5.86001,14.76936 2.38643,22.43245 -2.95653,6.57595 -10.81849,12.1708 -20.15209,14.23904 -4.81263,1.03412 -20.49678,1.55118 -25.32268,0.78275 z" />
  </g>
</svg>
