<?xml version="1.0" encoding="UTF-8" standalone="no"?>
<svg
   xmlns:dc="http://purl.org/dc/elements/1.1/"
   xmlns:cc="http://creativecommons.org/ns#"
   xmlns:rdf="http://www.w3.org/1999/02/22-rdf-syntax-ns#"
   xmlns:svg="http://www.w3.org/2000/svg"
   xmlns="http://www.w3.org/2000/svg"
   version="1.1"
   id="svg28063"
   viewBox="0 0 200 200"
   height="200"
   width="200">
  <defs
     id="defs28065" />
  <metadata
     id="metadata28068">
    <rdf:RDF>
      <cc:Work
         rdf:about="">
        <dc:format>image/svg+xml</dc:format>
        <dc:type
           rdf:resource="http://purl.org/dc/dcmitype/StillImage" />
        <dc:title></dc:title>
      </cc:Work>
    </rdf:RDF>
  </metadata>
  <g
     transform="translate(0,-852.36216)"
     id="layer1">
    <path
       id="path3423"
       style="fill:#28334c;fill-opacity:1;fill-rule:nonzero;stroke:none"
       d="m 87.38213,934.64161 c 0.107766,0.66457 -0.206553,1.23036 -1.329143,1.78715 -1.436908,-0.79927 -4.562192,-1.22137 -7.085763,-1.01481 -2.810958,0.21554 -5.118997,1.12259 -4.804671,3.01751 0.458011,1.859 3.125283,2.98159 7.894027,2.52358 11.683883,-0.9789 11.576109,-8.87293 28.65739,-10.41761 13.36327,-1.23035 20.80826,2.87382 21.78715,7.89403 0.77235,3.8617 -2.42478,7.65155 -12.10596,8.42389 -8.5586,0.79928 -13.54289,-1.54468 -13.99193,-3.89762 -0.21553,-1.19443 0.44904,-2.98159 4.5622,-3.4396 0.41311,1.89492 2.76605,3.89761 8.30714,3.33183 4.00538,-0.31468 7.33722,-1.75123 6.91513,-3.9964 -0.45802,-2.31702 -4.66996,-3.64617 -11.33363,-3.08937 -13.57881,1.19444 -16.910651,8.66637 -28.450837,9.64526 -8.244273,0.77235 -14.907945,-2.20924 -15.788055,-6.66367 -0.350246,-1.64347 -0.350246,-5.54108 8.352046,-6.31342 4.418499,-0.34989 8.001794,0.42245 8.414906,2.20925 z m -43.322856,46.44817 c -3.789852,4.7687 -5.433319,10.3098 -5.118994,15.788 0.350247,5.43342 3.017512,9.88782 7.229456,13.32732 4.45442,3.4397 9.223172,4.4185 14.656487,3.4397 2.110467,-0.3507 4.463405,-1.437 6.564885,-2.1015 -4.454418,0 -8.208346,-1.437 -11.9982,-4.4544 -4.104181,-2.9816 -6.879211,-7.22952 -7.543782,-12.32162 -1.014818,-4.8046 0,-9.2231 2.667265,-13.1118 2.981589,-3.7898 6.87921,-5.90026 11.998207,-6.56484 5.08307,-0.34988 9.537496,0.9789 14.000894,4.10414 -1.023797,-1.4369 -2.460705,-2.4517 -3.789847,-3.78981 -4.454426,-2.98159 -9.232158,-4.41851 -15.123484,-2.98159 -5.334537,1.12258 -9.753035,3.8976 -13.542887,8.6664 z M 103.6282,955.41395 c -14.351143,0 -27.112708,-1.43691 -36.344858,-3.4396 -9.887741,-2.46072 -15.114504,-5.119 -15.114504,-8.55861 0,-1.43691 0.664571,-2.66726 2.667264,-4.10417 -6.214636,2.45173 -9.546473,4.45442 -9.546473,7.54378 0.314324,3.46655 5.891332,6.90615 17.224969,9.57342 10.660078,2.66726 24.310726,4.10418 40.763362,4.10418 16.80287,0 30.13919,-1.43692 40.79928,-4.10418 11.33363,-2.66727 16.76695,-6.24158 16.76695,-9.57342 0,-2.42479 -2.45173,-4.77773 -6.87023,-6.56489 0.97889,0.66458 1.75123,1.78716 1.75123,3.01751 0,3.43961 -5.09205,6.20566 -15.43781,8.5586 -9.53749,2.11047 -21.78715,3.54738 -36.65918,3.54738 z m 40.87113,9.57341 c -10.66907,2.42479 -24.31073,4.10418 -40.76336,4.10418 -16.766952,0 -30.453528,-1.78716 -41.113606,-4.10418 -9.546476,-2.45172 -14.66547,-5.11899 -16.452628,-7.89402 1.787158,11.9982 5.891336,23.33184 11.324651,33.32734 4.104181,6.2146 8.244273,11.68392 12.348453,17.53932 1.796142,3.4755 2.981591,6.9151 3.789855,10.3547 2.667265,3.7809 6.528958,6.2057 11.333629,7.5348 5.855415,2.1464 11.998201,3.0175 18.203856,2.6672 l 0.67356,0 c 6.20566,0.3499 12.76156,-0.6645 18.76066,-2.6672 4.45443,-1.4369 8.24428,-3.7539 11.01931,-7.5348 l 0.31433,0 c 0.66457,-3.4396 1.78715,-6.8792 3.47552,-10.3547 4.10418,-5.8554 8.20835,-11.32472 12.31253,-17.53932 5.43332,-9.8877 9.22317,-21.22137 11.33363,-33.32734 -2.20925,3.08935 -7.33722,5.75662 -16.56039,7.89402 z" />
    <path
       id="path3425"
       style="fill:#28334c;fill-opacity:1;fill-rule:nonzero;stroke:none"
       d="m 22.308038,901.91597 c -2.34396,5.89133 -8.558598,8.24427 -12.626851,8.24427 C 3.161205,910.16024 9.9999999e-7,907.20559 9.9999999e-7,899.28463 9.9999999e-7,891.2469 3.861698,876.23119 15.43781,876.23119 c 4.140098,0 7.400089,1.58061 7.400089,5.90032 0,2.30803 -0.880107,4.03232 -3.12528,4.03232 -0.700494,0 -1.643467,-0.21554 -2.523574,-1.15851 1.086663,-0.56614 2.074539,-2.38886 2.074539,-4.06825 0,-1.40997 -0.736417,-2.70318 -2.739111,-2.70318 -4.876515,0 -9.22317,11.64795 -9.22317,20.66456 0,4.03234 1.086664,6.90616 5.32555,6.90616 3.439606,0 6.564886,-1.64347 8.630445,-4.41851 l 1.05074,0.53023 z m 16.039516,-7.96587 c 0.206556,0.10776 0.350247,0.10776 0.484957,0.10776 2.038617,0 4.912439,-1.3022 6.843288,-2.66726 l 0.38617,1.15851 c -1.652448,1.78715 -4.634037,3.15222 -7.858106,3.64616 -0.736416,8.20835 -5.154917,13.32734 -10.561293,13.32734 -4.104177,0 -7.085767,-1.95779 -7.085767,-7.01392 0,-5.11899 3.017513,-15.7162 12.141896,-15.7162 3.789852,0.14368 5.648855,2.59541 5.648855,7.15761 z m -3.753929,2.45172 c -0.916031,-0.24211 -1.158509,-0.97889 -1.158509,-1.859 0,-1.22138 0.592725,-2.02963 1.365065,-2.37989 -0.107769,-1.859 -0.529861,-2.59541 -1.652448,-2.59541 -3.188145,0 -5.855411,8.10058 -5.855411,12.48316 0,2.90974 0.601707,3.54737 2.245173,3.54737 2.038618,0.0718 4.319713,-3.89762 5.05613,-9.19623 z m -3.197126,19.33543 c 0,-4.0413 3.439605,-5.33453 7.687472,-6.63673 l 5.32555,-25.28962 c 1.3022,-6.31343 5.163897,-7.54379 8.037716,-7.54379 2.002701,0 3.88864,1.08667 4.732824,2.77503 1.760222,-2.24517 4.068254,-2.77503 6.035027,-2.77503 2.739112,0 5.262683,1.89493 5.262683,4.76875 0,0.73642 -0.0359,1.26628 -0.143686,1.83206 l -2.101487,0 c 0.0359,-0.45837 0.107774,-0.84419 0.107774,-1.19443 0,-1.0238 -0.844184,-1.50876 -1.652448,-1.50876 -0.978897,0 -2.352939,0.52088 -3.053437,3.46655 l -0.808264,3.61922 4.427486,0 -0.386172,1.75123 -4.39156,0 -5.011223,23.92456 c -1.338122,6.31343 -5.154919,7.54379 -8.037721,7.54379 -2.559496,0 -4.068253,-1.12259 -4.768747,-2.77503 -1.715312,2.24517 -4.068253,2.77503 -5.999102,2.77503 -2.739111,0.0718 -5.262685,-1.859 -5.262685,-4.73283 z m 4.4185,0.87113 c 0.916031,0 2.038617,-0.87113 2.631342,-3.43063 l 0.529861,-2.6044 c -2.775033,0.98788 -4.912438,2.14639 -4.912438,4.59812 0,0.56542 0.844185,1.43691 1.751235,1.43691 z m 10.561293,0 c 0.951954,0 2.07454,-0.87113 2.667266,-3.43063 l 1.050741,-5.09205 -4.598115,0.88011 -0.871127,4.06826 c -0.215536,1.01481 -0.52986,1.93084 -0.880107,2.70318 0.458015,0.66457 1.472833,0.87113 2.631342,0.87113 z m -0.664571,-8.76516 4.598114,-0.80826 3.75393,-17.96138 -4.391559,0 -3.960485,18.76964 z m 8.100585,-27.60664 c -0.978897,0 -2.352939,0.52088 -3.01751,3.43062 l -0.835207,3.61922 4.382575,0 1.014816,-4.63403 c 0.107774,-0.35061 0.107774,-0.62866 0.107774,-0.9789 0.0359,-0.98788 -0.736418,-1.43691 -1.652448,-1.43691 z m 18.45532,25.81949 c 3.475528,0 5.648854,-1.96677 7.858108,-4.49035 l 1.508755,0 c -2.523572,4.03233 -6.277507,8.20835 -12.177821,8.20835 -4.1401,0 -6.94207,-2.07454 -6.94207,-7.08576 0,-5.12798 2.873817,-15.75214 11.9982,-15.75214 3.960488,0 4.876518,2.06556 4.876518,4.23889 0,5.12797 -4.876518,9.01662 -10.175127,9.36686 -0.07188,0.63727 -0.107766,1.23036 -0.107766,1.76021 0,3.01752 1.086663,3.75394 3.161203,3.75394 z m 2.595418,-16.77593 c -2.245173,0 -4.454419,4.7418 -5.334529,9.12437 3.439609,-0.24283 6.457119,-3.61023 6.457119,-7.32824 0,-1.05972 -0.24248,-1.79613 -1.12259,-1.79613 z m 13.929054,16.28199 c 1.679388,0 3.825774,-1.12259 5.262683,-2.35294 -0.95195,5.09205 -4.068254,6.56488 -7.687468,6.56488 -4.10418,0 -6.870231,-2.07454 -6.870231,-7.08576 0,-5.12798 2.873824,-15.75214 11.998208,-15.75214 3.92456,0 4.86753,2.06556 4.86753,4.23889 0,5.1639 -4.86753,9.01662 -10.202067,9.36686 -0.0359,0.42173 -0.07181,0.98788 -0.07181,1.3022 0,2.80198 1.194429,3.71801 2.703184,3.71801 z m 3.01751,-16.28199 c -2.182306,0 -4.427478,4.91244 -5.334529,9.12437 3.439609,-0.20691 6.457119,-3.57431 6.457119,-7.32824 0,-1.05972 -0.287386,-1.79613 -1.12259,-1.79613 z m 25.011232,-3.26 c -0.80826,0 -1.43692,-0.27876 -2.03862,-0.94297 1.15851,-0.70049 2.00269,-2.31702 2.00269,-3.78985 0,-1.50876 -0.8801,-2.98159 -3.33183,-2.98159 -2.42479,0 -4.03234,1.36507 -4.03234,3.99641 0,6.49304 9.99552,7.40009 9.99552,16.98249 0,7.43601 -5.9991,11.04625 -12.49215,11.04625 -5.04714,0 -9.40278,-2.17333 -9.40278,-7.64257 0,-4.77773 3.40368,-7.26538 6.49304,-7.26538 1.50876,0 3.75393,0.62865 3.89762,2.90975 -2.38886,0 -5.22676,1.12258 -5.22676,4.17601 0,2.17333 1.43691,4.21195 4.23888,4.21195 2.98159,0 5.15492,-2.13741 5.15492,-5.82847 0,-7.60665 -9.04355,-10.30984 -9.04355,-16.83879 0,-4.62506 4.52626,-7.92098 10.23798,-7.92098 2.11046,0 7.1217,0.41311 7.1217,5.28963 0.0359,2.70319 -1.36507,4.59811 -3.57432,4.59811 z m 17.64705,5.02021 c 0,-1.12259 -0.38617,-1.79614 -1.23035,-1.79614 -2.77503,0 -5.68477,8.07364 -5.68477,13.02201 0,3.01751 1.05073,3.68208 3.23304,3.68208 3.43062,0 5.63988,-1.93085 7.82218,-4.49035 l 1.50876,0 c -2.53255,4.06825 -6.28649,8.20835 -12.17782,8.20835 -4.14009,0 -6.90615,-2.07454 -6.90615,-7.08576 0,-5.15492 2.90974,-15.71621 11.92636,-15.71621 3.96049,0 4.91244,2.02964 4.91244,4.03233 0,2.13741 -1.05973,3.25999 -2.31702,3.25999 -0.49394,0 -1.0238,-0.2062 -1.50876,-0.52088 0.24248,-0.95195 0.42209,-1.76021 0.42209,-2.59542 z m 13.50697,-3.71801 -0.60172,2.80198 c 1.54469,-1.32914 3.29592,-2.80198 5.37046,-2.80198 1.99371,0 3.08936,1.60755 3.08936,3.36777 0,1.50875 -1.0238,3.25999 -3.23305,3.25999 -2.48765,0 -1.22137,-2.90975 -2.59542,-2.90975 -1.29322,0 -2.13741,0.66457 -3.25999,1.64347 l -3.51145,16.87472 -6.38527,0 4.70588,-22.13741 6.4212,-0.0984 z m 16.65918,0 -3.18815,15.07859 c -0.17961,0.56614 -0.21554,1.0238 -0.21554,1.40997 0,1.22137 0.60172,1.60754 1.78716,1.60754 1.7243,0 3.36776,-1.64347 3.96947,-3.88864 l 1.859,0 c -2.52357,7.18455 -6.95106,8.17243 -9.33093,8.17243 -2.66727,0 -4.70589,-1.54468 -4.70589,-5.29861 0,-0.88011 0.14369,-1.82308 0.31433,-2.87382 l 3.01751,-14.24338 6.49304,0.0359 z m -2.0027,-9.43871 c 1.96678,0 3.51145,1.54469 3.51145,3.50248 0,1.93085 -1.54467,3.47552 -3.51145,3.47552 -1.92186,0 -3.43062,-1.54467 -3.43062,-3.47552 -0.0718,-1.95779 1.53569,-3.50248 3.43062,-3.50248 z m 14.20746,7.78627 -0.73642,3.36776 c 1.26628,-1.12259 2.98159,-1.89493 5.19982,-1.89493 3.04446,0 5.43332,1.68837 5.43332,7.01392 0,5.93624 -2.31702,15.65335 -10.87561,15.65335 -2.20926,0 -3.33185,-0.77234 -3.75394,-1.5806 l -2.28109,10.80377 -6.6996,1.54467 7.40009,-34.8361 6.31343,-0.0718 z m 3.78985,8.2802 c 0,-3.40369 -1.40099,-3.64617 -2.17333,-3.64617 -0.97889,0 -2.20925,0.77234 -3.08935,2.13741 l -2.63135,12.45622 c 0.17962,0.44903 0.67355,1.01482 1.65245,1.01482 4.73283,0 6.24158,-7.75034 6.24158,-11.96228 z m 13.54288,8.45083 c -0.13471,0.53021 -0.24248,1.05971 -0.24248,1.50875 0,0.91603 0.35025,1.54468 1.50876,1.54468 0.35024,0 0.84418,0 1.19443,-0.13435 -1.23035,3.78087 -3.23304,4.34665 -4.70588,4.34665 -3.12528,0 -4.4185,-2.1374 -4.4185,-5.0202 0,-0.80826 0.10777,-1.50876 0.2784,-2.34396 l 2.84688,-13.26448 -1.47283,0 0.35024,-1.75124 1.47284,0 1.29322,-6.10687 6.52896,-0.91603 c 0,0 -0.66457,3.01751 -1.50875,7.0229 l 2.70318,0 -0.35923,1.75124 -2.69421,0 -2.77503,13.36327 z" />
  </g>
</svg>
