<?xml version="1.0" encoding="UTF-8" standalone="no"?>
<svg
   xmlns:dc="http://purl.org/dc/elements/1.1/"
   xmlns:cc="http://creativecommons.org/ns#"
   xmlns:rdf="http://www.w3.org/1999/02/22-rdf-syntax-ns#"
   xmlns:svg="http://www.w3.org/2000/svg"
   xmlns="http://www.w3.org/2000/svg"
   xmlns:sodipodi="http://sodipodi.sourceforge.net/DTD/sodipodi-0.dtd"
   xmlns:inkscape="http://www.inkscape.org/namespaces/inkscape"
   width="200"
   height="200"
   viewBox="0 0 200 200"
   version="1.1"
   preserveAspectRatio="xMinYMin meet"
   id="svg2"
   inkscape:version="0.91 r13725"
   sodipodi:docname="logo-elasticsearch.svg">
  <metadata
     id="metadata24">
    <rdf:RDF>
      <cc:Work
         rdf:about="">
        <dc:format>image/svg+xml</dc:format>
        <dc:type
           rdf:resource="http://purl.org/dc/dcmitype/StillImage" />
        <dc:title></dc:title>
      </cc:Work>
    </rdf:RDF>
  </metadata>
  <defs
     id="defs22" />
  <sodipodi:namedview
     pagecolor="#ffffff"
     bordercolor="#666666"
     borderopacity="1"
     objecttolerance="10"
     gridtolerance="10"
     guidetolerance="10"
     inkscape:pageopacity="0"
     inkscape:pageshadow="2"
     inkscape:window-width="1391"
     inkscape:window-height="855"
     id="namedview20"
     showgrid="false"
     inkscape:zoom="0.921875"
     inkscape:cx="-7.5932203"
     inkscape:cy="128"
     inkscape:window-x="49"
     inkscape:window-y="0"
     inkscape:window-maximized="1"
     inkscape:current-layer="svg2" />
  <g
     id="g4"
     transform="matrix(0.70323711,0,0,0.70323711,9.9999995,9.7508936)">
    <path
       d="m 255.95919,134.39327 c 0,-21.52147 -13.37256,-40.117689 -33.22246,-47.430809 0.83579,-4.596818 1.25368,-8.98469 1.25368,-13.790454 0,-39.908739 -32.38667,-72.29541207 -72.29541,-72.29541207 -23.19304,0 -44.92345,11.07415307 -58.50496,30.08826407 C 86.503759,25.741202 78.354854,23.0249 69.788057,23.0249 c -21.103574,0 -38.446115,17.133595 -38.446115,38.446115 0,4.596819 0.835785,9.193637 2.298409,13.372562 C 13.581508,81.738804 0,100.96186 0,122.27438 c 0,21.52147 13.372562,40.32663 33.431404,47.63975 -0.835785,4.38787 -1.253677,8.98469 -1.253677,13.79046 0,39.69979 32.386673,72.08646 72.086463,72.08646 23.40199,0 44.92345,-11.2831 58.50496,-30.08826 6.68628,5.22366 15.04413,8.1489 23.61093,8.1489 21.10357,0 38.44612,-17.13359 38.44612,-38.44611 0,-4.59682 -0.83579,-9.19364 -2.29841,-13.37256 19.64095,-7.10418 33.4314,-26.32723 33.4314,-47.63975 l 0,0 z"
       id="path6"
       inkscape:connector-curvature="0"
       style="fill:#ffffff" />
    <path
       d="m 100.08527,110.36444 57.04233,26.11829 57.66917,-50.565 c 0.83579,-4.178926 1.25368,-8.357851 1.25368,-12.745723 0,-35.520867 -28.83459,-64.3554535 -64.35545,-64.3554535 -21.31252,0 -41.16242,10.4473135 -53.072357,27.9988015 l -9.611529,49.729214 11.074156,23.819871 0,0 z"
       id="path8"
       inkscape:connector-curvature="0"
       style="fill:#f4bd19" />
    <path
       d="m 40.95347,170.74992 c -0.835785,4.17892 -1.253677,8.5668 -1.253677,12.95467 0,35.52086 29.043532,64.5644 64.564397,64.5644 21.52147,0 41.37137,-10.65626 53.49025,-28.20775 l 9.40258,-49.72921 -12.74572,-24.23777 -57.251281,-26.11829 -56.206549,50.77395 0,0 z"
       id="path10"
       inkscape:connector-curvature="0"
       style="fill:#3cbeb1" />
    <path
       d="m 40.535578,71.918329 39.072954,9.193637 8.775743,-44.505558 C 82.951672,32.427483 76.474338,30.33802 69.57911,30.33802 c -16.924648,0 -30.924049,13.790454 -30.924049,30.924049 0,3.552087 0.626839,7.31312 1.880517,10.65626 l 0,0 z"
       id="path12"
       inkscape:connector-curvature="0"
       style="fill:#e9478c" />
    <path
       d="M 37.192437,81.320912 C 19.64095,86.962461 7.522066,103.88711 7.522066,122.27438 c 0,17.96938 11.074153,34.05825 27.789855,40.32663 L 90.264792,112.8718 80.235371,91.350333 37.192437,81.320912 l 0,0 z"
       id="path14"
       inkscape:connector-curvature="0"
       style="fill:#2c458f" />
    <path
       d="m 167.78386,219.85229 c 5.4326,4.17893 11.90994,6.47734 18.59622,6.47734 16.92465,0 30.92405,-13.79046 30.92405,-30.92405 0,-3.76103 -0.62684,-7.31312 -1.88052,-10.65626 l -39.07295,-9.19364 -8.5668,44.29661 0,0 z"
       id="path16"
       inkscape:connector-curvature="0"
       style="fill:#95c63d" />
    <path
       d="m 175.72382,165.31731 43.04293,10.02943 c 17.55149,-5.8505 29.67037,-22.5662 29.67037,-40.95347 0,-17.96938 -11.07415,-33.8493 -27.78985,-40.326635 l -56.4155,49.311325 11.49205,21.93935 0,0 z"
       id="path18"
       inkscape:connector-curvature="0"
       style="fill:#176655" />
  </g>
</svg>
