<?xml version="1.0" encoding="UTF-8" standalone="no"?>
<svg
   xmlns:dc="http://purl.org/dc/elements/1.1/"
   xmlns:cc="http://creativecommons.org/ns#"
   xmlns:rdf="http://www.w3.org/1999/02/22-rdf-syntax-ns#"
   xmlns:svg="http://www.w3.org/2000/svg"
   xmlns="http://www.w3.org/2000/svg"
   version="1.1"
   id="svg28063"
   viewBox="0 0 200 200"
   height="200"
   width="200">
  <defs
     id="defs28065">
    <clipPath
       id="clipPath28910"
       clipPathUnits="userSpaceOnUse">
      <path
         id="path28912"
         d="m 335.224,19.336 c 0,0 -8.881,6.059 -8.37,16.75 0.511,10.69 6.784,15.947 8.006,16.9 0.79,0.842 0.822,1.167 0.883,1.997 0.554,-1.189 0.462,-17.763 0.52,-19.7 0.228,-7.541 -0.417,-14.523 -1.039,-15.947" />
    </clipPath>
    <linearGradient
       id="linearGradient28922"
       spreadMethod="pad"
       gradientTransform="matrix(15.3511,3.4879,4.797,-14.3333,325.92,34.987)"
       gradientUnits="userSpaceOnUse"
       y2="0"
       x2="1"
       y1="0"
       x1="0">
      <stop
         id="stop28924"
         offset="0"
         style="stop-opacity:1;stop-color:#48a839" />
      <stop
         id="stop28926"
         offset="1"
         style="stop-opacity:1;stop-color:#89cc6d" />
    </linearGradient>
    <clipPath
       id="clipPath28886"
       clipPathUnits="userSpaceOnUse">
      <path
         id="path28888"
         d="m 337.456,19.685 c 0,0 9.468,6.236 7.25,19.187 -2.136,9.409 -7.18,12.502 -7.722,13.684 -0.597,0.835 -1.198,2.316 -1.198,2.316 l 0.403,-26.217 c 0,0 -0.833,-8.005 1.267,-8.97" />
    </clipPath>
    <linearGradient
       id="linearGradient28898"
       spreadMethod="pad"
       gradientTransform="matrix(8.771,-34.0489,-36.6353,-5.8737,334.249,54.626)"
       gradientUnits="userSpaceOnUse"
       y2="0"
       x2="1"
       y1="0"
       x1="0">
      <stop
         id="stop28900"
         offset="0"
         style="stop-opacity:1;stop-color:#50a341" />
      <stop
         id="stop28902"
         offset="1"
         style="stop-opacity:1;stop-color:#439036" />
    </linearGradient>
    <clipPath
       id="clipPath28862"
       clipPathUnits="userSpaceOnUse">
      <path
         id="path28864"
         d="m 336.869,14.359 -1.09,0.361 c 0,0 0.139,5.515 -1.851,5.901 -1.311,1.519 0.202,64.914 4.967,0.217 0,0 -1.631,-0.819 -1.94,-2.209 -0.308,-1.392 -0.086,-4.27 -0.086,-4.27" />
    </clipPath>
    <linearGradient
       id="linearGradient28874"
       spreadMethod="pad"
       gradientTransform="matrix(12.5257,-4.226,-3.8121,-11.2408,329.66,34.265)"
       gradientUnits="userSpaceOnUse"
       y2="0"
       x2="1"
       y1="0"
       x1="0">
      <stop
         id="stop28876"
         offset="0"
         style="stop-opacity:1;stop-color:#949869" />
      <stop
         id="stop28878"
         offset="1"
         style="stop-opacity:1;stop-color:#fdfcf0" />
    </linearGradient>
    <clipPath
       id="clipPath28852"
       clipPathUnits="userSpaceOnUse">
      <path
         id="path28854"
         d="M 0,0 485,0 485,428 0,428 0,0 Z" />
    </clipPath>
    <clipPath
       id="clipPath29048"
       clipPathUnits="userSpaceOnUse">
      <path
         id="path29050"
         d="M 0,0 485,0 485,428 0,428 0,0 Z" />
    </clipPath>
    <clipPath
       id="clipPath29024"
       clipPathUnits="userSpaceOnUse">
      <path
         id="path29026"
         d="m 20.224,379.336 c 0,0 -8.881,6.059 -8.37,16.75 0.511,10.69 6.784,15.947 8.006,16.9 0.79,0.842 0.822,1.167 0.883,1.997 0.554,-1.189 0.462,-17.763 0.52,-19.7 0.228,-7.541 -0.417,-14.523 -1.039,-15.947" />
    </clipPath>
    <linearGradient
       id="linearGradient29036"
       spreadMethod="pad"
       gradientTransform="matrix(15.3511,3.4879,4.797,-14.3333,10.9202,394.9868)"
       gradientUnits="userSpaceOnUse"
       y2="0"
       x2="1"
       y1="0"
       x1="0">
      <stop
         id="stop29038"
         offset="0"
         style="stop-opacity:1;stop-color:#48a839" />
      <stop
         id="stop29040"
         offset="1"
         style="stop-opacity:1;stop-color:#89cc6d" />
    </linearGradient>
    <clipPath
       id="clipPath29000"
       clipPathUnits="userSpaceOnUse">
      <path
         id="path29002"
         d="m 22.456,379.685 c 0,0 9.468,6.236 7.25,19.187 -2.136,9.409 -7.18,12.502 -7.722,13.683 -0.597,0.836 -1.198,2.317 -1.198,2.317 l 0.403,-26.217 c 0,0 -0.833,-8.005 1.267,-8.97" />
    </clipPath>
    <linearGradient
       id="linearGradient29012"
       spreadMethod="pad"
       gradientTransform="matrix(8.771,-34.0489,-36.6353,-5.8737,19.2491,414.6257)"
       gradientUnits="userSpaceOnUse"
       y2="0"
       x2="1"
       y1="0"
       x1="0">
      <stop
         id="stop29014"
         offset="0"
         style="stop-opacity:1;stop-color:#50a341" />
      <stop
         id="stop29016"
         offset="1"
         style="stop-opacity:1;stop-color:#439036" />
    </linearGradient>
    <clipPath
       id="clipPath28976"
       clipPathUnits="userSpaceOnUse">
      <path
         id="path28978"
         d="m 21.869,374.359 -1.09,0.361 c 0,0 0.139,5.515 -1.851,5.901 -1.311,1.519 0.202,64.914 4.967,0.217 0,0 -1.631,-0.819 -1.939,-2.209 -0.309,-1.392 -0.087,-4.27 -0.087,-4.27" />
    </clipPath>
    <linearGradient
       id="linearGradient28988"
       spreadMethod="pad"
       gradientTransform="matrix(12.5257,-4.226,-3.8121,-11.2408,14.6604,394.2645)"
       gradientUnits="userSpaceOnUse"
       y2="0"
       x2="1"
       y1="0"
       x1="0">
      <stop
         id="stop28990"
         offset="0"
         style="stop-opacity:1;stop-color:#949869" />
      <stop
         id="stop28992"
         offset="1"
         style="stop-opacity:1;stop-color:#fdfcf0" />
    </linearGradient>
  </defs>
  <metadata
     id="metadata28068">
    <rdf:RDF>
      <cc:Work
         rdf:about="">
        <dc:format>image/svg+xml</dc:format>
        <dc:type
           rdf:resource="http://purl.org/dc/dcmitype/StillImage" />
        <dc:title></dc:title>
      </cc:Work>
    </rdf:RDF>
  </metadata>
  <g
     transform="translate(0,-852.36216)"
     id="layer1">
    <path
       d="m 98.823281,852.37795 c -8.53922,0.10608 -17.39667,1.02895 -23.40329,2.63814 -29.22429,7.77016 -52.32261,26.67843 -65.5822701,53.60932 -18.90827,38.58561 -10.66076004,85.511 20.3138001,115.39829 14.70496,14.2547 29.67511,22.2762 49.35244,26.4663 17.76794,3.7923 40.707149,1.711 58.369009,-5.2243 16.05745,-6.3774 34.66074,-21.242 44.34029,-35.5359 27.8718,-41.06466 23.00551,-94.05025 -11.80109,-128.55188 -15.12927,-15.02372 -31.54473,-23.46959 -53.51598,-27.55356 -4.86629,-0.92287 -11.39004,-1.35249 -18.072909,-1.24641 z m 0.83483,14.13479 c 12.888389,0 25.683949,3.16853 38.267369,9.42709 25.94915,12.95521 43.04085,36.31873 46.78007,63.8723 1.28619,9.78562 0.51659,26.51931 -1.65746,34.59391 -4.15027,15.59336 -17.03866,34.86016 -30.09942,45.12316 -7.96905,6.3116 -21.70606,13.3519 -30.70937,15.7917 -8.12817,2.2277 -32.327039,2.7984 -40.349129,0.976 -15.54032,-3.5134 -29.67511,-11.3896 -41.59555,-23.1514 -19.05412,-18.7492 -26.25412,-37.13981 -25.32594,-64.74642 0.41158,-11.60273 0.8221,-14.45302 3.56685,-22.58172 4.61436,-13.67018 10.7801,-23.40277 21.75909,-34.34252 10.67403,-10.66076 19.06739,-15.89779 32.99003,-20.55246 8.80441,-2.95638 17.62208,-4.41494 26.37346,-4.41494 z"
       style="fill:#050505;fill-opacity:1;fill-rule:nonzero;stroke:none"
       id="path3397" />
    <path
       d="m 60.025521,1009.3723 c 0.21216,-0.6259 7.87624,-12.53092 17.05192,-26.57236 l 16.66739,-25.43203 14.970149,0 c 8.23425,0 14.97016,0.10608 14.97016,0.31824 0,0.4137 -43.915989,36.87457 -56.300509,46.66015 -4.24309,3.368 -7.558,5.6487 -7.35911,5.079 z"
       style="fill:#050505;fill-opacity:1;fill-rule:nonzero;stroke:none"
       id="path3399" />
    <path
       d="m 76.653131,946.69336 c 0.053,-0.4137 5.18453,-4.97184 11.45635,-10.09007 6.25856,-5.13202 19.372359,-15.85855 29.104939,-23.88117 19.83645,-16.21603 23.93369,-19.37183 22.68728,-17.25029 -0.46462,0.78498 -8.34033,12.79504 -17.46297,26.67843 l -16.61435,25.27291 -14.612139,0 c -8.07513,0 -14.61214,-0.30762 -14.55911,-0.73193 z"
       style="fill:#050505;fill-opacity:1;fill-rule:nonzero;stroke:none"
       id="path3401" />
  </g>
</svg>
