<?xml version="1.0" encoding="UTF-8" standalone="no"?>
<svg
   xmlns:dc="http://purl.org/dc/elements/1.1/"
   xmlns:cc="http://creativecommons.org/ns#"
   xmlns:rdf="http://www.w3.org/1999/02/22-rdf-syntax-ns#"
   xmlns:svg="http://www.w3.org/2000/svg"
   xmlns="http://www.w3.org/2000/svg"
   version="1.1"
   id="svg28063"
   viewBox="0 0 200 200"
   height="200"
   width="200">
  <defs
     id="defs28065" />
  <metadata
     id="metadata28068">
    <rdf:RDF>
      <cc:Work
         rdf:about="">
        <dc:format>image/svg+xml</dc:format>
        <dc:type
           rdf:resource="http://purl.org/dc/dcmitype/StillImage" />
        <dc:title></dc:title>
      </cc:Work>
    </rdf:RDF>
  </metadata>
  <g
     transform="translate(0,-852.36216)"
     id="layer1">
    <path
       id="path3403"
       style="fill:#e44d26;fill-opacity:1;fill-rule:nonzero;stroke:none"
       d="M 157.94152,1036.3078 99.8895,1052.3622 42.05846,1036.3078 29.1531,891.67489 l 141.6938,0 -12.90538,144.63291 z" />
    <path
       id="path3405"
       style="fill:#f16529;fill-opacity:1;fill-rule:nonzero;stroke:none"
       d="m 99.97789,1040.0645 46.91453,-12.9938 11.00493,-123.57326 -57.91946,0 0,136.56706 z" />
    <path
       id="path3407"
       style="fill:#ebebeb;fill-opacity:1;fill-rule:nonzero;stroke:none"
       d="m 60.31159,974.88576 39.6663,0 0,-17.73383 -23.47936,0 -1.59107,-18.1758 25.07043,0 0,-17.7338 -44.45056,0 0.43091,4.75112 4.35335,48.89231 z" />
    <path
       id="path3409"
       style="fill:#ebebeb;fill-opacity:1;fill-rule:nonzero;stroke:none"
       d="m 78.91829,983.73608 -17.82221,0 2.4971,27.88802 36.29632,10.0547 0.0884,0 0,-18.4742 -0.0442,0.044 -19.76685,-5.35878 -1.24856,-14.15392 z" />
    <path
       id="path3411"
       style="fill:#000000;fill-opacity:1;fill-rule:nonzero;stroke:none"
       d="m 42.31259,852.36216 9.02712,0 0,8.92768 8.24264,0 0,-8.92768 9.01607,0 0,26.97087 -9.01607,0 0,-9.01608 -8.24264,0 0,9.01608 -9.02712,0 0,-26.97087 z" />
    <path
       id="path3413"
       style="fill:#000000;fill-opacity:1;fill-rule:nonzero;stroke:none"
       d="m 80.46517,861.28984 -7.93327,0 0,-8.92768 24.9047,0 0,8.92768 -7.94431,0 0,18.04319 -9.02712,0 0,-18.04319 z" />
    <path
       id="path3415"
       style="fill:#000000;fill-opacity:1;fill-rule:nonzero;stroke:none"
       d="m 101.35903,852.36216 9.41384,0 5.77868,9.49118 5.78974,-9.49118 9.4028,0 0,26.97087 -8.97188,0 0,-13.38048 -6.22066,9.62378 -0.1768,0 -6.16539,-9.62378 0,13.38048 -8.85035,0 0,-26.97087 z" />
    <path
       id="path3417"
       style="fill:#000000;fill-opacity:1;fill-rule:nonzero;stroke:none"
       d="m 136.23002,852.36216 9.02713,0 0,18.07633 12.6402,0 0,8.89454 -21.66733,0 0,-26.97087 z" />
    <path
       id="path3419"
       style="fill:#ffffff;fill-opacity:1;fill-rule:nonzero;stroke:none"
       d="m 99.9337,1003.2488 0,18.43 36.38472,-10.0547 0.26518,-3.0275 4.1434,-46.69357 0.43092,-4.7511 -41.22422,0 0,17.73383 21.84409,0 -2.07724,23.00426 -19.76685,5.35878 z" />
    <path
       id="path3421"
       style="fill:#ffffff;fill-opacity:1;fill-rule:nonzero;stroke:none"
       d="m 143.9644,925.99345 0.43092,-4.75112 -44.46162,0 0,17.7338 42.8595,0 0.34252,-3.96663 0.82868,-9.01605 z" />
  </g>
</svg>
