<?xml version="1.0" encoding="UTF-8" standalone="no"?>
<svg
   xmlns:dc="http://purl.org/dc/elements/1.1/"
   xmlns:cc="http://creativecommons.org/ns#"
   xmlns:rdf="http://www.w3.org/1999/02/22-rdf-syntax-ns#"
   xmlns:svg="http://www.w3.org/2000/svg"
   xmlns="http://www.w3.org/2000/svg"
   xmlns:sodipodi="http://sodipodi.sourceforge.net/DTD/sodipodi-0.dtd"
   xmlns:inkscape="http://www.inkscape.org/namespaces/inkscape"
   version="1.1"
   id="svg28063"
   viewBox="0 0 200 200"
   height="200"
   width="200"
   inkscape:version="0.91 r13725"
   sodipodi:docname="logo-reactjs.svg">
  <sodipodi:namedview
     pagecolor="#ffffff"
     bordercolor="#666666"
     borderopacity="1"
     objecttolerance="10"
     gridtolerance="10"
     guidetolerance="10"
     inkscape:pageopacity="0"
     inkscape:pageshadow="2"
     inkscape:window-width="1280"
     inkscape:window-height="744"
     id="namedview46"
     showgrid="false"
     inkscape:zoom="0.59"
     inkscape:cx="1.4938648"
     inkscape:cy="263.31872"
     inkscape:window-x="0"
     inkscape:window-y="27"
     inkscape:window-maximized="1"
     inkscape:current-layer="svg28063"
     fit-margin-top="0"
     fit-margin-left="0"
     fit-margin-right="0"
     fit-margin-bottom="0" />
  <defs
     id="defs28065">
    <clipPath
       id="clipPath28910"
       clipPathUnits="userSpaceOnUse">
      <path
         id="path28912"
         d="m 335.224,19.336 c 0,0 -8.881,6.059 -8.37,16.75 0.511,10.69 6.784,15.947 8.006,16.9 0.79,0.842 0.822,1.167 0.883,1.997 0.554,-1.189 0.462,-17.763 0.52,-19.7 0.228,-7.541 -0.417,-14.523 -1.039,-15.947"
         inkscape:connector-curvature="0" />
    </clipPath>
    <linearGradient
       id="linearGradient28922"
       spreadMethod="pad"
       gradientTransform="matrix(15.3511,3.4879,4.797,-14.3333,325.92,34.987)"
       gradientUnits="userSpaceOnUse"
       y2="0"
       x2="1"
       y1="0"
       x1="0">
      <stop
         id="stop28924"
         offset="0"
         style="stop-opacity:1;stop-color:#48a839" />
      <stop
         id="stop28926"
         offset="1"
         style="stop-opacity:1;stop-color:#89cc6d" />
    </linearGradient>
    <clipPath
       id="clipPath28886"
       clipPathUnits="userSpaceOnUse">
      <path
         id="path28888"
         d="m 337.456,19.685 c 0,0 9.468,6.236 7.25,19.187 -2.136,9.409 -7.18,12.502 -7.722,13.684 -0.597,0.835 -1.198,2.316 -1.198,2.316 l 0.403,-26.217 c 0,0 -0.833,-8.005 1.267,-8.97"
         inkscape:connector-curvature="0" />
    </clipPath>
    <linearGradient
       id="linearGradient28898"
       spreadMethod="pad"
       gradientTransform="matrix(8.771,-34.0489,-36.6353,-5.8737,334.249,54.626)"
       gradientUnits="userSpaceOnUse"
       y2="0"
       x2="1"
       y1="0"
       x1="0">
      <stop
         id="stop28900"
         offset="0"
         style="stop-opacity:1;stop-color:#50a341" />
      <stop
         id="stop28902"
         offset="1"
         style="stop-opacity:1;stop-color:#439036" />
    </linearGradient>
    <clipPath
       id="clipPath28862"
       clipPathUnits="userSpaceOnUse">
      <path
         id="path28864"
         d="m 336.869,14.359 -1.09,0.361 c 0,0 0.139,5.515 -1.851,5.901 -1.311,1.519 0.202,64.914 4.967,0.217 0,0 -1.631,-0.819 -1.94,-2.209 -0.308,-1.392 -0.086,-4.27 -0.086,-4.27"
         inkscape:connector-curvature="0" />
    </clipPath>
    <linearGradient
       id="linearGradient28874"
       spreadMethod="pad"
       gradientTransform="matrix(12.5257,-4.226,-3.8121,-11.2408,329.66,34.265)"
       gradientUnits="userSpaceOnUse"
       y2="0"
       x2="1"
       y1="0"
       x1="0">
      <stop
         id="stop28876"
         offset="0"
         style="stop-opacity:1;stop-color:#949869" />
      <stop
         id="stop28878"
         offset="1"
         style="stop-opacity:1;stop-color:#fdfcf0" />
    </linearGradient>
    <clipPath
       id="clipPath28852"
       clipPathUnits="userSpaceOnUse">
      <path
         id="path28854"
         d="M 0,0 485,0 485,428 0,428 0,0 Z"
         inkscape:connector-curvature="0" />
    </clipPath>
    <clipPath
       id="clipPath29048"
       clipPathUnits="userSpaceOnUse">
      <path
         id="path29050"
         d="M 0,0 485,0 485,428 0,428 0,0 Z"
         inkscape:connector-curvature="0" />
    </clipPath>
    <clipPath
       id="clipPath29024"
       clipPathUnits="userSpaceOnUse">
      <path
         id="path29026"
         d="m 20.224,379.336 c 0,0 -8.881,6.059 -8.37,16.75 0.511,10.69 6.784,15.947 8.006,16.9 0.79,0.842 0.822,1.167 0.883,1.997 0.554,-1.189 0.462,-17.763 0.52,-19.7 0.228,-7.541 -0.417,-14.523 -1.039,-15.947"
         inkscape:connector-curvature="0" />
    </clipPath>
    <linearGradient
       id="linearGradient29036"
       spreadMethod="pad"
       gradientTransform="matrix(15.3511,3.4879,4.797,-14.3333,10.9202,394.9868)"
       gradientUnits="userSpaceOnUse"
       y2="0"
       x2="1"
       y1="0"
       x1="0">
      <stop
         id="stop29038"
         offset="0"
         style="stop-opacity:1;stop-color:#48a839" />
      <stop
         id="stop29040"
         offset="1"
         style="stop-opacity:1;stop-color:#89cc6d" />
    </linearGradient>
    <clipPath
       id="clipPath29000"
       clipPathUnits="userSpaceOnUse">
      <path
         id="path29002"
         d="m 22.456,379.685 c 0,0 9.468,6.236 7.25,19.187 -2.136,9.409 -7.18,12.502 -7.722,13.683 -0.597,0.836 -1.198,2.317 -1.198,2.317 l 0.403,-26.217 c 0,0 -0.833,-8.005 1.267,-8.97"
         inkscape:connector-curvature="0" />
    </clipPath>
    <linearGradient
       id="linearGradient29012"
       spreadMethod="pad"
       gradientTransform="matrix(8.771,-34.0489,-36.6353,-5.8737,19.2491,414.6257)"
       gradientUnits="userSpaceOnUse"
       y2="0"
       x2="1"
       y1="0"
       x1="0">
      <stop
         id="stop29014"
         offset="0"
         style="stop-opacity:1;stop-color:#50a341" />
      <stop
         id="stop29016"
         offset="1"
         style="stop-opacity:1;stop-color:#439036" />
    </linearGradient>
    <clipPath
       id="clipPath28976"
       clipPathUnits="userSpaceOnUse">
      <path
         id="path28978"
         d="m 21.869,374.359 -1.09,0.361 c 0,0 0.139,5.515 -1.851,5.901 -1.311,1.519 0.202,64.914 4.967,0.217 0,0 -1.631,-0.819 -1.939,-2.209 -0.309,-1.392 -0.087,-4.27 -0.087,-4.27"
         inkscape:connector-curvature="0" />
    </clipPath>
    <linearGradient
       id="linearGradient28988"
       spreadMethod="pad"
       gradientTransform="matrix(12.5257,-4.226,-3.8121,-11.2408,14.6604,394.2645)"
       gradientUnits="userSpaceOnUse"
       y2="0"
       x2="1"
       y1="0"
       x1="0">
      <stop
         id="stop28990"
         offset="0"
         style="stop-opacity:1;stop-color:#949869" />
      <stop
         id="stop28992"
         offset="1"
         style="stop-opacity:1;stop-color:#fdfcf0" />
    </linearGradient>
  </defs>
  <metadata
     id="metadata28068">
    <rdf:RDF>
      <cc:Work
         rdf:about="">
        <dc:format>image/svg+xml</dc:format>
        <dc:type
           rdf:resource="http://purl.org/dc/dcmitype/StillImage" />
        <dc:title></dc:title>
      </cc:Work>
    </rdf:RDF>
  </metadata>
  <g
     transform="matrix(0.33333333,0,0,0.33333333,66.666666,-217.45405)"
     id="layer1">
    <g
       transform="translate(-200,652.36216)"
       id="g4158">
      <rect
         width="600"
         height="600"
         id="rect3"
         x="0"
         y="0"
         style="fill:#222222" />
      <circle
         cx="299.52899"
         cy="299.62799"
         r="50.167"
         id="circle5"
         style="fill:#00d8ff" />
      <path
         stroke-miterlimit="10"
         d="m 299.529,197.628 c 67.356,0 129.928,9.665 177.107,25.907 56.844,19.569 91.794,49.233 91.794,76.093 0,27.991 -37.041,59.503 -98.083,79.728 -46.151,15.291 -106.879,23.272 -170.818,23.272 -65.554,0 -127.63,-7.492 -174.29,-23.441 -59.046,-20.182 -94.611,-52.103 -94.611,-79.559 0,-26.642 33.37,-56.076 89.415,-75.616 47.355,-16.509 111.472,-26.384 179.486,-26.384 z"
         id="path7"
         style="fill:none;stroke:#00d8ff;stroke-width:24;stroke-miterlimit:10"
         inkscape:connector-curvature="0" />
      <path
         stroke-miterlimit="10"
         d="m 210.736,248.922 c 33.649,-58.348 73.281,-107.724 110.92,-140.48 45.35,-39.466 88.507,-54.923 111.775,-41.505 24.248,13.983 33.042,61.814 20.067,124.796 -9.81,47.618 -33.234,104.212 -65.176,159.601 -32.749,56.788 -70.25,106.819 -107.377,139.272 -46.981,41.068 -92.4,55.929 -116.185,42.213 -23.079,-13.31 -31.906,-56.921 -20.834,-115.233 9.355,-49.27 32.832,-109.745 66.81,-168.664 z"
         id="path9"
         style="fill:none;stroke:#00d8ff;stroke-width:24;stroke-miterlimit:10"
         inkscape:connector-curvature="0" />
      <path
         stroke-miterlimit="10"
         d="M 210.821,351.482 C 177.075,293.19 154.09,234.195 144.509,185.227 132.965,126.228 141.127,81.118 164.373,67.661 c 24.224,-14.024 70.055,2.244 118.14,44.94 36.356,32.28 73.688,80.837 105.723,136.173 32.844,56.733 57.461,114.209 67.036,162.582 12.117,61.213 2.309,107.984 -21.453,121.74 C 410.762,546.444 368.57,532.312 323.58,493.597 285.567,460.886 244.898,410.344 210.821,351.482 Z"
         id="path11"
         style="fill:none;stroke:#00d8ff;stroke-width:24;stroke-miterlimit:10"
         inkscape:connector-curvature="0" />
    </g>
  </g>
</svg>
