<?xml version="1.0" encoding="UTF-8" standalone="no"?>
<svg
   xmlns:dc="http://purl.org/dc/elements/1.1/"
   xmlns:cc="http://creativecommons.org/ns#"
   xmlns:rdf="http://www.w3.org/1999/02/22-rdf-syntax-ns#"
   xmlns:svg="http://www.w3.org/2000/svg"
   xmlns="http://www.w3.org/2000/svg"
   xmlns:sodipodi="http://sodipodi.sourceforge.net/DTD/sodipodi-0.dtd"
   xmlns:inkscape="http://www.inkscape.org/namespaces/inkscape"
   version="1.1"
   id="svg28063"
   viewBox="0 0 200 200"
   height="200"
   width="200"
   inkscape:version="0.91 r13725"
   sodipodi:docname="logo-jquery.svg">
  <sodipodi:namedview
     pagecolor="#ffffff"
     bordercolor="#666666"
     borderopacity="1"
     objecttolerance="10"
     gridtolerance="10"
     guidetolerance="10"
     inkscape:pageopacity="0"
     inkscape:pageshadow="2"
     inkscape:window-width="1391"
     inkscape:window-height="855"
     id="namedview48"
     showgrid="false"
     showguides="false"
     inkscape:zoom="1.18"
     inkscape:cx="-23.728814"
     inkscape:cy="100"
     inkscape:window-x="49"
     inkscape:window-y="0"
     inkscape:window-maximized="1"
     inkscape:current-layer="svg28063">
    <inkscape:grid
       type="xygrid"
       id="grid3376" />
  </sodipodi:namedview>
  <defs
     id="defs28065">
    <clipPath
       id="clipPath28910"
       clipPathUnits="userSpaceOnUse">
      <path
         id="path28912"
         d="m 335.224,19.336 c 0,0 -8.881,6.059 -8.37,16.75 0.511,10.69 6.784,15.947 8.006,16.9 0.79,0.842 0.822,1.167 0.883,1.997 0.554,-1.189 0.462,-17.763 0.52,-19.7 0.228,-7.541 -0.417,-14.523 -1.039,-15.947" />
    </clipPath>
    <linearGradient
       id="linearGradient28922"
       spreadMethod="pad"
       gradientTransform="matrix(15.3511,3.4879,4.797,-14.3333,325.92,34.987)"
       gradientUnits="userSpaceOnUse"
       y2="0"
       x2="1"
       y1="0"
       x1="0">
      <stop
         id="stop28924"
         offset="0"
         style="stop-opacity:1;stop-color:#48a839" />
      <stop
         id="stop28926"
         offset="1"
         style="stop-opacity:1;stop-color:#89cc6d" />
    </linearGradient>
    <clipPath
       id="clipPath28886"
       clipPathUnits="userSpaceOnUse">
      <path
         id="path28888"
         d="m 337.456,19.685 c 0,0 9.468,6.236 7.25,19.187 -2.136,9.409 -7.18,12.502 -7.722,13.684 -0.597,0.835 -1.198,2.316 -1.198,2.316 l 0.403,-26.217 c 0,0 -0.833,-8.005 1.267,-8.97" />
    </clipPath>
    <linearGradient
       id="linearGradient28898"
       spreadMethod="pad"
       gradientTransform="matrix(8.771,-34.0489,-36.6353,-5.8737,334.249,54.626)"
       gradientUnits="userSpaceOnUse"
       y2="0"
       x2="1"
       y1="0"
       x1="0">
      <stop
         id="stop28900"
         offset="0"
         style="stop-opacity:1;stop-color:#50a341" />
      <stop
         id="stop28902"
         offset="1"
         style="stop-opacity:1;stop-color:#439036" />
    </linearGradient>
    <clipPath
       id="clipPath28862"
       clipPathUnits="userSpaceOnUse">
      <path
         id="path28864"
         d="m 336.869,14.359 -1.09,0.361 c 0,0 0.139,5.515 -1.851,5.901 -1.311,1.519 0.202,64.914 4.967,0.217 0,0 -1.631,-0.819 -1.94,-2.209 -0.308,-1.392 -0.086,-4.27 -0.086,-4.27" />
    </clipPath>
    <linearGradient
       id="linearGradient28874"
       spreadMethod="pad"
       gradientTransform="matrix(12.5257,-4.226,-3.8121,-11.2408,329.66,34.265)"
       gradientUnits="userSpaceOnUse"
       y2="0"
       x2="1"
       y1="0"
       x1="0">
      <stop
         id="stop28876"
         offset="0"
         style="stop-opacity:1;stop-color:#949869" />
      <stop
         id="stop28878"
         offset="1"
         style="stop-opacity:1;stop-color:#fdfcf0" />
    </linearGradient>
    <clipPath
       id="clipPath28852"
       clipPathUnits="userSpaceOnUse">
      <path
         id="path28854"
         d="M 0,0 485,0 485,428 0,428 0,0 Z" />
    </clipPath>
    <clipPath
       id="clipPath29048"
       clipPathUnits="userSpaceOnUse">
      <path
         id="path29050"
         d="M 0,0 485,0 485,428 0,428 0,0 Z" />
    </clipPath>
    <clipPath
       id="clipPath29024"
       clipPathUnits="userSpaceOnUse">
      <path
         id="path29026"
         d="m 20.224,379.336 c 0,0 -8.881,6.059 -8.37,16.75 0.511,10.69 6.784,15.947 8.006,16.9 0.79,0.842 0.822,1.167 0.883,1.997 0.554,-1.189 0.462,-17.763 0.52,-19.7 0.228,-7.541 -0.417,-14.523 -1.039,-15.947" />
    </clipPath>
    <linearGradient
       id="linearGradient29036"
       spreadMethod="pad"
       gradientTransform="matrix(15.3511,3.4879,4.797,-14.3333,10.9202,394.9868)"
       gradientUnits="userSpaceOnUse"
       y2="0"
       x2="1"
       y1="0"
       x1="0">
      <stop
         id="stop29038"
         offset="0"
         style="stop-opacity:1;stop-color:#48a839" />
      <stop
         id="stop29040"
         offset="1"
         style="stop-opacity:1;stop-color:#89cc6d" />
    </linearGradient>
    <clipPath
       id="clipPath29000"
       clipPathUnits="userSpaceOnUse">
      <path
         id="path29002"
         d="m 22.456,379.685 c 0,0 9.468,6.236 7.25,19.187 -2.136,9.409 -7.18,12.502 -7.722,13.683 -0.597,0.836 -1.198,2.317 -1.198,2.317 l 0.403,-26.217 c 0,0 -0.833,-8.005 1.267,-8.97" />
    </clipPath>
    <linearGradient
       id="linearGradient29012"
       spreadMethod="pad"
       gradientTransform="matrix(8.771,-34.0489,-36.6353,-5.8737,19.2491,414.6257)"
       gradientUnits="userSpaceOnUse"
       y2="0"
       x2="1"
       y1="0"
       x1="0">
      <stop
         id="stop29014"
         offset="0"
         style="stop-opacity:1;stop-color:#50a341" />
      <stop
         id="stop29016"
         offset="1"
         style="stop-opacity:1;stop-color:#439036" />
    </linearGradient>
    <clipPath
       id="clipPath28976"
       clipPathUnits="userSpaceOnUse">
      <path
         id="path28978"
         d="m 21.869,374.359 -1.09,0.361 c 0,0 0.139,5.515 -1.851,5.901 -1.311,1.519 0.202,64.914 4.967,0.217 0,0 -1.631,-0.819 -1.939,-2.209 -0.309,-1.392 -0.087,-4.27 -0.087,-4.27" />
    </clipPath>
    <linearGradient
       id="linearGradient28988"
       spreadMethod="pad"
       gradientTransform="matrix(12.5257,-4.226,-3.8121,-11.2408,14.6604,394.2645)"
       gradientUnits="userSpaceOnUse"
       y2="0"
       x2="1"
       y1="0"
       x1="0">
      <stop
         id="stop28990"
         offset="0"
         style="stop-opacity:1;stop-color:#949869" />
      <stop
         id="stop28992"
         offset="1"
         style="stop-opacity:1;stop-color:#fdfcf0" />
    </linearGradient>
    <clipPath
       clipPathUnits="userSpaceOnUse"
       id="clipPath3501">
      <path
         d="M 0,0 279,0 279,71 0,71 0,0 Z"
         id="path3503"
         inkscape:connector-curvature="0" />
    </clipPath>
    <clipPath
       clipPathUnits="userSpaceOnUse"
       id="clipPath3525">
      <path
         d="m 0.06,70.749 278.298,0 0,-70.689 -278.298,0 0,70.689 z"
         id="path3527"
         inkscape:connector-curvature="0" />
    </clipPath>
    <clipPath
       clipPathUnits="userSpaceOnUse"
       id="clipPath3531">
      <path
         d="M 0,0 279,0 279,71 0,71 0,0 Z"
         id="path3533"
         inkscape:connector-curvature="0" />
    </clipPath>
    <clipPath
       clipPathUnits="userSpaceOnUse"
       id="clipPath3543">
      <path
         d="M 0,0 279,0 279,71 0,71 0,0 Z"
         id="path3545"
         inkscape:connector-curvature="0" />
    </clipPath>
    <clipPath
       clipPathUnits="userSpaceOnUse"
       id="clipPath3563">
      <path
         d="m 0.06,70.749 278.298,0 0,-70.689 -278.298,0 0,70.689 z"
         id="path3565"
         inkscape:connector-curvature="0" />
    </clipPath>
    <clipPath
       clipPathUnits="userSpaceOnUse"
       id="clipPath3569">
      <path
         d="M 0,0 279,0 279,71 0,71 0,0 Z"
         id="path3571"
         inkscape:connector-curvature="0" />
    </clipPath>
    <clipPath
       clipPathUnits="userSpaceOnUse"
       id="clipPath3581">
      <path
         d="M 0,0 279,0 279,71 0,71 0,0 Z"
         id="path3583"
         inkscape:connector-curvature="0" />
    </clipPath>
    <clipPath
       clipPathUnits="userSpaceOnUse"
       id="clipPath3599">
      <path
         d="m 0.06,70.749 278.298,0 0,-70.689 -278.298,0 0,70.689 z"
         id="path3601"
         inkscape:connector-curvature="0" />
    </clipPath>
    <clipPath
       clipPathUnits="userSpaceOnUse"
       id="clipPath3605">
      <path
         d="M 0,0 279,0 279,71 0,71 0,0 Z"
         id="path3607"
         inkscape:connector-curvature="0" />
    </clipPath>
    <clipPath
       clipPathUnits="userSpaceOnUse"
       id="clipPath3617">
      <path
         d="M 0,0 279,0 279,71 0,71 0,0 Z"
         id="path3619"
         inkscape:connector-curvature="0" />
    </clipPath>
  </defs>
  <metadata
     id="metadata28068">
    <rdf:RDF>
      <cc:Work
         rdf:about="">
        <dc:format>image/svg+xml</dc:format>
        <dc:type
           rdf:resource="http://purl.org/dc/dcmitype/StillImage" />
        <dc:title></dc:title>
      </cc:Work>
    </rdf:RDF>
  </metadata>
  <rect
     style="opacity:1;fill:#343434;fill-opacity:1;stroke:none;stroke-width:5;stroke-miterlimit:4;stroke-dasharray:none;stroke-opacity:1"
     id="rect3847"
     width="200"
     height="200"
     x="0"
     y="0" />
  <g
     transform="matrix(0.71865544,0,0,-0.71865544,-0.04311904,125.44364)"
     id="g3495" />
  <g
     id="g4756"
     transform="matrix(0.8,0,0,0.8,20,19.999997)">
    <g
       id="g3497"
       transform="matrix(0.71865544,0,0,-0.71865544,-0.04311904,125.44364)">
      <g
         clip-path="url(#clipPath3501)"
         id="g3499">
        <path
           inkscape:connector-curvature="0"
           id="path3505"
           style="fill:#ffffff;fill-opacity:1;fill-rule:nonzero;stroke:none"
           d="m 107.212,7.764 c -0.021,-0.612 -0.063,-1.243 -0.143,-1.913 l 2.49,4.514 -0.274,1.472 2.5,0.382 0.909,-6.253 1.15,3.92 c 0.091,0.383 0.138,0.669 0.149,0.956 0.009,0.287 -0.018,0.593 -0.118,1.014 l 2.618,0.497 c 0.095,-0.535 0.156,-0.995 0.14,-1.472 -0.023,-0.632 -0.181,-1.32 -0.619,-2.352 l -2.108,-5.661 -3.117,0 -0.656,4.226 -2.441,-4.226 -3.022,0 c 0.119,3.94 -0.024,6.406 -0.297,8.988 l 2.595,0.401 c 0.198,-1.434 0.301,-2.868 0.244,-4.493" />
        <path
           inkscape:connector-curvature="0"
           id="path3507"
           style="fill:#ffffff;fill-opacity:1;fill-rule:nonzero;stroke:none"
           d="m 123.443,9.924 c -1.208,-0.65 -1.656,-0.899 -2.75,-1.568 l -1.167,-5.488 -2.695,0 1.903,9.084 2.385,0.401 -0.102,-1.262 c 0.918,0.535 1.658,0.918 2.473,1.262 l -0.047,-2.429" />
        <path
           inkscape:connector-curvature="0"
           id="path3509"
           style="fill:#ffffff;fill-opacity:1;fill-rule:nonzero;stroke:none"
           d="m 125.914,16.082 2.786,0.382 -0.617,-2.868 -2.767,-0.383 0.598,2.869 z m -0.871,-4.111 2.787,0.382 -2.014,-9.485 -2.695,0 1.922,9.103" />
        <path
           inkscape:connector-curvature="0"
           id="path3511"
           style="fill:#ffffff;fill-opacity:1;fill-rule:nonzero;stroke:none"
           d="M 132.794,10.02 131.81,5.374 c -0.022,-0.096 -0.045,-0.192 -0.047,-0.249 -0.004,-0.134 0.07,-0.192 0.262,-0.192 0.459,0 0.98,0.192 1.466,0.383 l 0.469,-1.874 c -0.779,-0.421 -1.9,-0.765 -2.99,-0.765 -1.357,0 -2.061,0.65 -2.022,1.759 0.004,0.134 0.029,0.268 0.052,0.402 l 1.099,5.182 -1.376,0 0.457,2.161 1.377,0 0.46,2.237 2.785,0.383 -0.55,-2.62 2.218,0 -0.611,-2.161 -2.065,0" />
        <path
           inkscape:connector-curvature="0"
           id="path3513"
           style="fill:#ffffff;fill-opacity:1;fill-rule:nonzero;stroke:none"
           d="m 140.911,9.752 c 0.011,0.326 -0.268,0.536 -0.765,0.536 -0.976,0 -1.282,-0.555 -1.442,-1.32 l -0.137,-0.65 c 0.463,0.115 0.674,0.153 1.234,0.326 0.735,0.21 1.09,0.554 1.11,1.108 z m -4.907,-0.898 c 0.456,2.142 1.461,3.518 4.406,3.518 1.758,0 3.07,-0.765 3.015,-2.333 -0.063,-1.817 -1.029,-2.658 -3.347,-3.346 -1.141,-0.344 -1.16,-0.344 -1.97,-0.555 l -0.138,-0.65 c -0.069,-0.345 -0.042,-0.65 0.455,-0.65 0.976,0 2.408,0.478 3.689,1.032 l 0.449,-1.912 c -1.153,-0.707 -2.951,-1.281 -4.595,-1.281 -1.931,0 -2.724,0.841 -2.669,2.428 0.012,0.345 0.065,0.727 0.155,1.129 l 0.55,2.62" />
        <path
           inkscape:connector-curvature="0"
           id="path3515"
           style="fill:#ffffff;fill-opacity:1;fill-rule:nonzero;stroke:none"
           d="m 150.381,15.987 2.786,0.382 -2.842,-13.501 -2.696,0 2.752,13.119" />
        <path
           inkscape:connector-curvature="0"
           id="path3517"
           style="fill:#ffffff;fill-opacity:1;fill-rule:nonzero;stroke:none"
           d="m 158.422,9.752 c 0.012,0.326 -0.267,0.536 -0.764,0.536 -0.976,0 -1.283,-0.555 -1.443,-1.32 l -0.136,-0.65 c 0.463,0.115 0.673,0.153 1.234,0.326 0.734,0.21 1.09,0.554 1.109,1.108 z m -4.906,-0.898 c 0.456,2.142 1.461,3.518 4.405,3.518 1.759,0 3.071,-0.765 3.016,-2.333 -0.063,-1.817 -1.029,-2.658 -3.348,-3.346 -1.14,-0.344 -1.159,-0.344 -1.969,-0.555 l -0.138,-0.65 c -0.069,-0.345 -0.042,-0.65 0.455,-0.65 0.976,0 2.407,0.478 3.688,1.032 l 0.45,-1.912 c -1.154,-0.707 -2.951,-1.281 -4.595,-1.281 -1.932,0 -2.725,0.841 -2.669,2.428 0.012,0.345 0.064,0.727 0.154,1.129 l 0.551,2.62" />
        <path
           inkscape:connector-curvature="0"
           id="path3519"
           style="fill:#ffffff;fill-opacity:1;fill-rule:nonzero;stroke:none"
           d="m 161.16,3.289 0.586,1.989 c 0.698,-0.249 1.493,-0.478 2.506,-0.478 0.899,0 0.965,0.267 1.057,0.707 0.091,0.421 -0.169,0.65 -1.201,1.205 -1.913,1.033 -1.966,1.721 -1.668,3.117 0.433,2.008 1.045,2.543 3.626,2.543 0.879,0 2,-0.191 2.757,-0.439 l -0.512,-2.028 c -0.682,0.192 -1.688,0.344 -2.339,0.344 -0.803,0 -0.922,-0.095 -1.035,-0.592 -0.091,-0.44 10e-4,-0.536 0.883,-1.013 2.101,-1.148 2.413,-1.55 2.094,-3.022 -0.456,-2.104 -1.097,-2.945 -3.889,-2.945 -0.86,0 -2.056,0.249 -2.865,0.612" />
      </g>
    </g>
    <g
       id="g3521"
       transform="matrix(0.71865544,0,0,-0.71865544,-0.04311904,125.44364)">
      <g
         clip-path="url(#clipPath3525)"
         id="g3523">
        <g
           clip-path="url(#clipPath3531)"
           id="g3529">
          <path
             inkscape:connector-curvature="0"
             id="path3535"
             style="fill:#ffffff;fill-opacity:1;fill-rule:nonzero;stroke:none"
             d="m 168.884,3.289 0.586,1.989 c 0.698,-0.249 1.493,-0.478 2.507,-0.478 0.898,0 0.965,0.267 1.057,0.707 0.091,0.421 -0.169,0.65 -1.201,1.205 -1.914,1.033 -1.966,1.721 -1.668,3.117 0.432,2.008 1.044,2.543 3.626,2.543 0.878,0 2,-0.191 2.756,-0.439 l -0.511,-2.028 c -0.682,0.192 -1.689,0.344 -2.339,0.344 -0.803,0 -0.922,-0.095 -1.035,-0.592 -0.091,-0.44 0.001,-0.536 0.882,-1.013 2.102,-1.148 2.414,-1.55 2.094,-3.022 -0.456,-2.104 -1.096,-2.945 -3.888,-2.945 -0.861,0 -2.056,0.249 -2.866,0.612" />
          <path
             inkscape:connector-curvature="0"
             id="path3537"
             style="fill:#ffffff;fill-opacity:1;fill-rule:nonzero;stroke:none"
             d="m 176.271,0.784 1.546,2.084 -1.014,0 0.665,3.174 2.696,0 -0.73,-3.403 L 177.218,0 176.271,0.784" />
        </g>
      </g>
    </g>
    <g
       id="g3539"
       transform="matrix(0.71865544,0,0,-0.71865544,-0.04311904,125.44364)">
      <g
         clip-path="url(#clipPath3543)"
         id="g3541">
        <path
           inkscape:connector-curvature="0"
           id="path3547"
           style="fill:#ffffff;fill-opacity:1;fill-rule:nonzero;stroke:none"
           d="m 188.544,5.66 c -0.113,-0.497 0.013,-0.727 0.491,-0.727 0.956,0 1.661,0.498 2.193,0.957 l 0.871,4.149 c -0.304,0.058 -0.666,0.077 -1.048,0.077 -1.396,0 -1.709,-0.746 -1.912,-1.645 L 188.544,5.66 Z m 2.464,-2.792 -0.049,0.803 c -0.688,-0.554 -1.659,-0.994 -2.998,-0.994 -2.026,0 -2.48,1.224 -2.044,3.308 l 0.527,2.505 c 0.46,2.218 1.092,3.882 5.011,3.882 0.287,0 0.878,-0.038 1.125,-0.096 l 0.779,3.711 2.766,0.382 -2.841,-13.501 -2.276,0" />
        <path
           inkscape:connector-curvature="0"
           id="path3549"
           style="fill:#ffffff;fill-opacity:1;fill-rule:nonzero;stroke:none"
           d="m 202.121,9.064 c 0.024,0.688 -0.383,1.052 -1.263,1.052 -1.014,0 -1.625,-0.516 -1.809,-1.434 l -0.482,-2.314 c -0.025,-0.134 -0.048,-0.268 -0.052,-0.383 -0.023,-0.669 0.384,-1.052 1.264,-1.052 1.032,0 1.623,0.517 1.808,1.435 l 0.483,2.314 c 0.023,0.133 0.047,0.267 0.051,0.382 z m -6.329,-3.27 c 0.008,0.21 0.036,0.44 0.082,0.65 l 0.458,2.161 c 0.502,2.391 1.718,3.767 4.968,3.767 2.505,0 3.582,-1.434 3.525,-3.098 -0.008,-0.21 -0.035,-0.44 -0.081,-0.669 l -0.457,-2.161 c -0.481,-2.238 -1.605,-3.767 -4.989,-3.767 -2.371,0 -3.564,1.415 -3.506,3.117" />
        <path
           inkscape:connector-curvature="0"
           id="path3551"
           style="fill:#ffffff;fill-opacity:1;fill-rule:nonzero;stroke:none"
           d="m 221.283,9.198 c 0.023,0.115 0.046,0.21 0.048,0.287 0.006,0.191 -0.086,0.267 -0.354,0.267 -0.497,0 -1.681,-0.497 -2.459,-0.898 l -1.261,-5.986 -2.676,0 1.33,6.33 c 0.022,0.115 0.046,0.21 0.047,0.287 0.007,0.191 -0.085,0.267 -0.353,0.267 -0.497,0 -1.7,-0.497 -2.44,-0.879 l -1.261,-6.005 -2.696,0 1.905,9.084 2.384,0.401 -0.055,-1.032 c 1.477,0.688 2.637,1.051 3.708,1.051 0.917,0 1.381,-0.401 1.567,-1.09 1.444,0.823 2.735,1.09 3.805,1.09 1.243,0 1.677,-0.707 1.636,-1.893 -0.012,-0.325 -0.044,-0.688 -0.133,-1.071 l -1.376,-6.54 -2.696,0 1.33,6.33" />
        <path
           inkscape:connector-curvature="0"
           id="path3553"
           style="fill:#ffffff;fill-opacity:1;fill-rule:nonzero;stroke:none"
           d="m 231.39,9.064 c 0.025,0.688 -0.383,1.052 -1.263,1.052 -1.013,0 -1.625,-0.516 -1.808,-1.434 l -0.483,-2.314 c -0.024,-0.134 -0.047,-0.268 -0.051,-0.383 -0.024,-0.669 0.383,-1.052 1.263,-1.052 1.033,0 1.623,0.517 1.809,1.435 l 0.482,2.314 c 0.024,0.133 0.047,0.267 0.051,0.382 z m -6.328,-3.27 c 0.008,0.21 0.035,0.44 0.081,0.65 l 0.458,2.161 c 0.503,2.391 1.719,3.767 4.969,3.767 2.505,0 3.582,-1.434 3.524,-3.098 -0.008,-0.21 -0.035,-0.44 -0.081,-0.669 l -0.457,-2.161 c -0.48,-2.238 -1.604,-3.767 -4.988,-3.767 -2.371,0 -3.565,1.415 -3.506,3.117" />
        <path
           inkscape:connector-curvature="0"
           id="path3555"
           style="fill:#ffffff;fill-opacity:1;fill-rule:nonzero;stroke:none"
           d="m 241.248,9.924 c -1.208,-0.65 -1.657,-0.899 -2.75,-1.568 l -1.167,-5.488 -2.696,0 1.905,9.084 2.383,0.401 -0.101,-1.262 c 0.918,0.535 1.658,0.918 2.472,1.262 l -0.046,-2.429" />
        <path
           inkscape:connector-curvature="0"
           id="path3557"
           style="fill:#ffffff;fill-opacity:1;fill-rule:nonzero;stroke:none"
           d="m 246.767,9.752 c 0.012,0.326 -0.267,0.536 -0.765,0.536 -0.975,0 -1.282,-0.555 -1.442,-1.32 l -0.137,-0.65 c 0.463,0.115 0.674,0.153 1.235,0.326 0.734,0.21 1.09,0.554 1.109,1.108 z m -4.906,-0.898 c 0.456,2.142 1.461,3.518 4.405,3.518 1.759,0 3.07,-0.765 3.016,-2.333 -0.064,-1.817 -1.03,-2.658 -3.349,-3.346 -1.14,-0.344 -1.158,-0.344 -1.969,-0.555 l -0.137,-0.65 c -0.07,-0.345 -0.042,-0.65 0.455,-0.65 0.975,0 2.407,0.478 3.688,1.032 l 0.449,-1.912 c -1.153,-0.707 -2.951,-1.281 -4.594,-1.281 -1.932,0 -2.725,0.841 -2.669,2.428 0.011,0.345 0.064,0.727 0.154,1.129 l 0.551,2.62" />
      </g>
    </g>
    <g
       id="g3559"
       transform="matrix(0.71865544,0,0,-0.71865544,-0.04311904,125.44364)">
      <g
         clip-path="url(#clipPath3563)"
         id="g3561">
        <g
           clip-path="url(#clipPath3569)"
           id="g3567">
          <path
             inkscape:connector-curvature="0"
             id="path3573"
             style="fill:#ffffff;fill-opacity:1;fill-rule:nonzero;stroke:none"
             d="m 250.384,6.042 2.696,0 -0.665,-3.174 -2.696,0 0.665,3.174" />
          <path
             inkscape:connector-curvature="0"
             id="path3575"
             style="fill:#88d5f6;fill-opacity:1;fill-rule:nonzero;stroke:none"
             d="M 3.27,57.305 C -1.287,50.758 -0.724,42.241 2.763,35.284 c 0.078,-0.17 0.168,-0.331 0.253,-0.495 0.049,-0.106 0.105,-0.213 0.165,-0.317 0.026,-0.058 0.067,-0.121 0.1,-0.178 0.056,-0.113 0.116,-0.218 0.176,-0.326 0.112,-0.189 0.224,-0.381 0.335,-0.568 0.064,-0.104 0.124,-0.209 0.195,-0.313 0.119,-0.202 0.257,-0.401 0.381,-0.603 0.055,-0.086 0.108,-0.17 0.168,-0.254 0.178,-0.272 0.358,-0.541 0.556,-0.806 0,-0.008 0.007,-0.015 0.014,-0.018 0.03,-0.045 0.064,-0.088 0.094,-0.129 0.168,-0.23 0.336,-0.454 0.511,-0.676 0.06,-0.082 0.127,-0.164 0.187,-0.244 0.16,-0.194 0.317,-0.388 0.474,-0.581 0.06,-0.069 0.119,-0.142 0.183,-0.213 0.209,-0.251 0.429,-0.502 0.653,-0.748 0,-0.003 0.007,-0.009 0.011,-0.015 0.008,-0.009 0.015,-0.018 0.03,-0.028 0.216,-0.237 0.437,-0.47 0.661,-0.701 0.07,-0.072 0.141,-0.14 0.22,-0.215 0.171,-0.174 0.343,-0.349 0.526,-0.521 0.075,-0.071 0.149,-0.14 0.22,-0.209 0.239,-0.224 0.478,-0.448 0.728,-0.662 0.004,-0.004 0.008,-0.006 0.011,-0.009 0.041,-0.036 0.086,-0.072 0.124,-0.107 0.219,-0.188 0.44,-0.375 0.664,-0.56 0.09,-0.075 0.179,-0.145 0.269,-0.218 0.186,-0.148 0.373,-0.289 0.559,-0.431 0.098,-0.073 0.195,-0.148 0.295,-0.225 0.202,-0.15 0.411,-0.298 0.616,-0.443 0.075,-0.055 0.149,-0.109 0.228,-0.159 0.019,-0.017 0.041,-0.032 0.06,-0.047 0.205,-0.134 0.399,-0.265 0.601,-0.397 0.089,-0.058 0.175,-0.114 0.261,-0.172 0.313,-0.199 0.627,-0.392 0.937,-0.578 0.089,-0.047 0.179,-0.098 0.265,-0.148 0.231,-0.134 0.466,-0.267 0.705,-0.394 0.131,-0.073 0.261,-0.136 0.396,-0.203 0.16,-0.088 0.328,-0.177 0.5,-0.265 0.041,-0.017 0.082,-0.032 0.119,-0.052 0.071,-0.032 0.139,-0.068 0.205,-0.101 0.262,-0.129 0.531,-0.25 0.807,-0.373 0.052,-0.025 0.108,-0.047 0.164,-0.075 0.31,-0.134 0.62,-0.263 0.937,-0.388 0.075,-0.028 0.149,-0.062 0.228,-0.088 0.287,-0.112 0.586,-0.222 0.881,-0.328 0.037,-0.016 0.07,-0.027 0.108,-0.039 0.328,-0.113 0.653,-0.219 0.985,-0.322 0.078,-0.022 0.157,-0.05 0.239,-0.071 0.34,-0.102 0.668,-0.222 1.015,-0.287 22.033,-4.016 28.434,13.241 28.434,13.241 -5.378,-7 -14.922,-8.85 -23.962,-6.793 -0.336,0.076 -0.668,0.183 -1.008,0.284 -0.079,0.022 -0.168,0.048 -0.247,0.076 -0.328,0.099 -0.652,0.206 -0.97,0.314 -0.045,0.015 -0.093,0.031 -0.138,0.05 -0.287,0.099 -0.571,0.207 -0.854,0.317 -0.079,0.034 -0.161,0.062 -0.24,0.092 -0.313,0.123 -0.623,0.255 -0.925,0.388 -0.067,0.024 -0.124,0.052 -0.187,0.078 -0.265,0.122 -0.519,0.241 -0.776,0.365 -0.079,0.033 -0.149,0.07 -0.228,0.109 -0.202,0.096 -0.403,0.202 -0.601,0.307 -0.138,0.07 -0.272,0.136 -0.403,0.208 -0.242,0.131 -0.485,0.269 -0.728,0.403 -0.075,0.051 -0.157,0.094 -0.243,0.14 -0.313,0.187 -0.63,0.379 -0.94,0.577 -0.089,0.056 -0.172,0.112 -0.254,0.17 -0.227,0.144 -0.451,0.295 -0.672,0.444 -0.071,0.051 -0.141,0.103 -0.216,0.155 -0.213,0.15 -0.422,0.3 -0.634,0.456 -0.09,0.071 -0.183,0.141 -0.281,0.212 -0.19,0.148 -0.38,0.293 -0.57,0.446 -0.083,0.069 -0.168,0.137 -0.251,0.203 -0.246,0.198 -0.477,0.397 -0.713,0.602 -0.022,0.024 -0.055,0.044 -0.082,0.065 -0.25,0.224 -0.5,0.453 -0.746,0.681 -0.075,0.071 -0.138,0.136 -0.213,0.204 -0.179,0.175 -0.358,0.347 -0.533,0.524 -0.075,0.074 -0.143,0.144 -0.213,0.215 -0.224,0.226 -0.445,0.459 -0.661,0.697 -0.011,0.01 -0.022,0.021 -0.034,0.034 -0.227,0.25 -0.447,0.504 -0.668,0.762 -0.06,0.069 -0.115,0.139 -0.175,0.207 -0.161,0.198 -0.321,0.397 -0.485,0.595 -0.053,0.077 -0.113,0.149 -0.172,0.224 -0.191,0.245 -0.373,0.489 -0.556,0.741 -5.017,6.844 -6.827,16.288 -2.814,24.039" />
        </g>
      </g>
    </g>
    <g
       id="g3577"
       transform="matrix(0.71865544,0,0,-0.71865544,-0.04311904,125.44364)">
      <g
         clip-path="url(#clipPath3581)"
         id="g3579">
        <path
           inkscape:connector-curvature="0"
           id="path3585"
           style="fill:#88d5f6;fill-opacity:1;fill-rule:nonzero;stroke:none"
           d="m 17.416,62.824 c -3.303,-4.741 -3.12,-11.088 -0.548,-16.104 0.425,-0.84 0.91,-1.656 1.455,-2.43 0.493,-0.709 1.038,-1.549 1.698,-2.118 0.232,-0.261 0.482,-0.515 0.74,-0.771 0.063,-0.063 0.127,-0.125 0.194,-0.192 0.246,-0.237 0.496,-0.47 0.753,-0.698 0.008,-0.01 0.023,-0.019 0.031,-0.028 0.003,-0.002 0.007,-0.005 0.007,-0.005 0.287,-0.254 0.579,-0.495 0.881,-0.73 0.071,-0.051 0.134,-0.107 0.205,-0.157 0.299,-0.234 0.605,-0.457 0.915,-0.678 0.011,-0.003 0.018,-0.011 0.033,-0.017 0.135,-0.096 0.276,-0.186 0.422,-0.279 0.063,-0.041 0.13,-0.09 0.194,-0.129 0.227,-0.148 0.452,-0.285 0.683,-0.422 0.034,-0.017 0.067,-0.035 0.101,-0.052 0.194,-0.118 0.399,-0.233 0.605,-0.338 0.07,-0.043 0.141,-0.076 0.212,-0.115 0.142,-0.071 0.284,-0.146 0.422,-0.219 0.018,-0.009 0.045,-0.02 0.067,-0.03 0.291,-0.144 0.586,-0.276 0.877,-0.409 0.071,-0.028 0.131,-0.052 0.198,-0.08 0.239,-0.102 0.481,-0.203 0.721,-0.295 0.108,-0.035 0.209,-0.078 0.309,-0.113 0.22,-0.079 0.445,-0.155 0.665,-0.228 0.108,-0.036 0.205,-0.066 0.302,-0.097 0.314,-0.099 0.631,-0.226 0.963,-0.278 17.005,-2.82 20.939,10.279 20.939,10.279 -3.542,-5.102 -10.398,-7.532 -17.714,-5.633 -0.329,0.084 -0.649,0.178 -0.963,0.281 -0.101,0.026 -0.19,0.057 -0.287,0.091 -0.228,0.073 -0.456,0.149 -0.676,0.232 -0.101,0.037 -0.205,0.074 -0.306,0.113 -0.243,0.096 -0.485,0.189 -0.721,0.293 -0.07,0.028 -0.138,0.053 -0.193,0.082 -0.303,0.131 -0.602,0.271 -0.893,0.411 -0.149,0.077 -0.294,0.151 -0.444,0.229 -0.089,0.045 -0.175,0.088 -0.254,0.129 -0.198,0.103 -0.381,0.211 -0.567,0.321 -0.045,0.024 -0.09,0.047 -0.134,0.073 -0.228,0.138 -0.463,0.276 -0.68,0.42 -0.074,0.043 -0.138,0.092 -0.209,0.136 -0.149,0.095 -0.295,0.19 -0.448,0.293 -0.309,0.215 -0.612,0.442 -0.914,0.67 -0.071,0.058 -0.138,0.11 -0.205,0.166 -3.21,2.527 -5.749,5.983 -6.95,9.897 -1.269,4.065 -0.989,8.628 1.198,12.328" />
        <path
           inkscape:connector-curvature="0"
           id="path3587"
           style="fill:#88d5f6;fill-opacity:1;fill-rule:nonzero;stroke:none"
           d="m 29.308,66.946 c -1.948,-2.859 -2.135,-6.41 -0.791,-9.564 1.425,-3.352 4.34,-5.982 7.737,-7.226 0.138,-0.054 0.276,-0.099 0.418,-0.148 0.064,-0.018 0.123,-0.039 0.191,-0.059 0.198,-0.062 0.395,-0.136 0.6,-0.176 9.395,-1.814 11.941,4.821 12.624,5.797 -2.236,-3.214 -5.987,-3.985 -10.589,-2.867 -0.362,0.088 -0.758,0.218 -1.109,0.345 -0.448,0.159 -0.892,0.344 -1.325,0.547 -0.81,0.394 -1.594,0.868 -2.318,1.417 -4.121,3.124 -6.673,9.083 -3.986,13.937" />
        <path
           inkscape:connector-curvature="0"
           id="path3589"
           style="fill:#ffffff;fill-opacity:1;fill-rule:nonzero;stroke:none"
           d="m 246.995,53.553 0.369,-1.557 c 0.104,-0.445 -0.179,-0.806 -0.635,-0.806" />
        <path
           inkscape:connector-curvature="0"
           id="path3591"
           style="fill:#ffffff;fill-opacity:1;fill-rule:nonzero;stroke:none"
           d="m 217.358,56.226 c -0.093,-0.432 -0.205,-0.976 -0.279,-1.337 l -3.251,-15.215 3.419,16.029 0.111,0.523" />
        <path
           inkscape:connector-curvature="0"
           id="path3593"
           style="fill:#ffffff;fill-opacity:1;fill-rule:nonzero;stroke:none"
           d="m 119.963,46.043 -1.796,-6.358 1.796,6.357 0,10e-4" />
      </g>
    </g>
    <g
       id="g3595"
       transform="matrix(0.71865544,0,0,-0.71865544,-0.04311904,125.44364)">
      <g
         clip-path="url(#clipPath3599)"
         id="g3597">
        <g
           clip-path="url(#clipPath3605)"
           id="g3603">
          <path
             inkscape:connector-curvature="0"
             id="path3609"
             style="fill:#ffffff;fill-opacity:1;fill-rule:nonzero;stroke:none"
             d="m 247.364,51.996 -0.937,3.962 c -0.739,2.867 -2.833,4.222 -7.539,4.222 l -19.794,0 c -0.456,0 -0.911,-0.205 -1.004,-0.651 l -7.509,-35.615 c -0.098,-0.45 -0.127,-0.77 -0.076,-0.993 0.053,-0.229 0.934,-0.186 1.385,-0.186 l 6.857,0 c 0.459,0 1.292,-0.034 1.534,0.063 0.254,0.105 0.366,0.783 0.459,1.233 l 2.423,12.487 2.96,13.851 c 0.096,0.444 0.544,0.808 1,0.808 l 19.606,0.013 c 0.452,0 0.739,0.362 0.635,0.806" />
          <path
             inkscape:connector-curvature="0"
             id="path3611"
             style="fill:#ffffff;fill-opacity:1;fill-rule:nonzero;stroke:none"
             d="m 275.255,66.434 c -0.459,-0.005 -8.695,0 -8.695,0 -0.455,0 -1.041,-0.489 -1.295,-0.866 L 250.002,43.113 c -0.26,-0.377 -0.555,-0.364 -0.656,0.08 l -1.128,4.922 c -0.096,0.446 -0.551,0.81 -1.014,0.81 l -9.81,0 c -0.451,0 -0.724,-0.377 -0.604,-0.818 l 4.397,-15.416 c 0.127,-0.441 0.138,-1.162 0.025,-1.604 l -2.05,-7.808 c -0.109,-0.443 0.171,-0.576 0.634,-0.576 l 9.686,0 c 0.455,0 0.926,0.131 1.037,0.576 l 2.052,7.918 c 0.112,0.441 0.429,1.042 0.701,1.41 l 24.909,33.034 c 0.28,0.362 0.24,0.795 -0.215,0.795 l -2.711,-0.002" />
        </g>
      </g>
    </g>
    <g
       id="g3613"
       transform="matrix(0.71865544,0,0,-0.71865544,-0.04311904,125.44364)">
      <g
         clip-path="url(#clipPath3617)"
         id="g3615">
        <path
           inkscape:connector-curvature="0"
           id="path3621"
           style="fill:#ffffff;fill-opacity:1;fill-rule:nonzero;stroke:none"
           d="m 173.121,60.15 -8.854,0 c -0.451,0 -0.914,-0.159 -1.004,-0.607 l -2.926,-13.691 -2.915,-13.11 c -0.093,-0.445 -0.545,-0.414 -1.001,-0.414 l -5.818,0 c -5.756,0 -5.092,3.636 -3.908,9.087 0.014,0.055 3.691,18.128 3.691,18.128 0.082,0.446 -0.217,0.607 -0.668,0.607 l -8.435,0 c -0.455,0 -0.908,-0.161 -0.996,-0.607 l -3.394,-18.114 c -1.692,-9.795 -1.743,-18.413 9.615,-18.697 0.187,-0.007 17.935,0 17.935,0 0.459,0 0.91,0.15 1.008,0.592 l 3.851,18.166 3.837,18.242 c 0,0 0.136,0.418 -0.018,0.418" />
        <path
           inkscape:connector-curvature="0"
           id="path3623"
           style="fill:#ffffff;fill-opacity:1;fill-rule:nonzero;stroke:none"
           d="m 84.937,60.18 -9.492,0 c -0.455,0 -0.914,-0.108 -1.015,-0.556 l -1.713,-7.411 c -0.097,-0.439 0.194,-0.789 0.653,-0.789 l 9.088,0 c 0.46,0 0.915,0.414 1.012,0.856 l 1.65,7.467 c 0,0 0.131,0.433 -0.183,0.433" />
        <path
           inkscape:connector-curvature="0"
           id="path3625"
           style="fill:#ffffff;fill-opacity:1;fill-rule:nonzero;stroke:none"
           d="m 72.754,48.925 c -0.451,0 -0.914,-0.361 -1.011,-0.806 L 70.462,42.466 67.607,29.412 c 0,0 -1.519,-6.94 -1.665,-7.374 0,0 -1.279,-5.011 -4.335,-4.81 -1.422,0.094 -3.047,0.42 -3.047,0.42 l -0.004,0 c -0.855,0.258 -0.915,-0.629 -1.019,-1.072 L 55.652,8.443 c -0.109,-0.446 0.183,-0.846 0.635,-0.852 0,0 4.086,-0.576 6.972,-0.576 l 0.474,0 c 7.129,0 10.895,4.191 13.302,15.573 l 2.822,13.174 2.646,12.258 c 0.098,0.446 -0.172,0.86 -0.627,0.86" />
        <path
           inkscape:connector-curvature="0"
           id="path3627"
           style="fill:#ffffff;fill-opacity:1;fill-rule:nonzero;stroke:none"
           d="m 199.732,44.566 c 0,-0.495 -1.563,-0.401 -1.563,-0.401 l -12.447,0.091 c -0.43,0 -0.553,0.603 -0.583,1.034 -0.001,0.015 0.031,0.517 0.068,0.642 0.962,3.337 3.833,5.244 8.383,5.244 5.12,0 6.214,-2.54 6.214,-5.356 m -4.281,14.415 c -15.967,0 -19.778,-9.869 -21.898,-19.65 -2.121,-9.973 -1.94,-17.856 14.581,-17.856 l 0.596,0 c 6.555,0 14.518,0 14.518,0 0.447,0.008 0.895,0.418 0.985,0.86 l 1.624,6.326 c 0.094,0.449 -0.209,0.581 -0.66,0.581 l -14.859,0 c -5.382,0 -7.309,1.658 -7.121,5.38 -0.004,0.424 0.481,1.502 0.936,1.502 l 22.888,0 c 1.005,0.006 1.037,0.594 1.037,0.594 2.33,10.516 2.482,22.263 -12.627,22.263" />
        <path
           inkscape:connector-curvature="0"
           id="path3629"
           style="fill:#ffffff;fill-opacity:1;fill-rule:nonzero;stroke:none"
           d="m 118.082,39.685 -1.84,-6.289 c -0.127,-0.441 -0.646,-0.735 -1.102,-0.735 l -9.492,0 c -7.203,0 -8.954,5.566 -7.203,13.873 1.758,8.491 5.241,13.745 12.325,14.277 9.686,0.729 11.668,-6.11 9.32,-13.973 l -2.008,-7.153 z m 8.435,-6.664 c 0,0 4.472,10.863 5.486,17.141 1.389,8.402 -2.814,20.587 -19.065,20.587 -16.154,0 -23.164,-11.633 -25.847,-24.28 -2.673,-12.739 0.826,-23.83 16.891,-23.74 l 24.52,0.015 c 0.452,0.002 0.923,0.367 1.039,0.802 l 2.067,7.871 c 0.112,0.445 -0.168,0.805 -0.627,0.807 l -1.975,0.015 -1.974,0.009 c -0.388,0.003 -0.612,0.255 -0.56,0.589 0.007,0.061 0.015,0.121 0.045,0.184" />
      </g>
    </g>
  </g>
</svg>
