<?xml version="1.0" encoding="UTF-8" standalone="no"?>
<svg
   xmlns:dc="http://purl.org/dc/elements/1.1/"
   xmlns:cc="http://creativecommons.org/ns#"
   xmlns:rdf="http://www.w3.org/1999/02/22-rdf-syntax-ns#"
   xmlns:svg="http://www.w3.org/2000/svg"
   xmlns="http://www.w3.org/2000/svg"
   version="1.1"
   id="svg28063"
   viewBox="0 0 200 200"
   height="200"
   width="200">
  <defs
     id="defs28065">
    <clipPath
       id="clipPath28910"
       clipPathUnits="userSpaceOnUse">
      <path
         id="path28912"
         d="m 335.224,19.336 c 0,0 -8.881,6.059 -8.37,16.75 0.511,10.69 6.784,15.947 8.006,16.9 0.79,0.842 0.822,1.167 0.883,1.997 0.554,-1.189 0.462,-17.763 0.52,-19.7 0.228,-7.541 -0.417,-14.523 -1.039,-15.947" />
    </clipPath>
    <linearGradient
       id="linearGradient28922"
       spreadMethod="pad"
       gradientTransform="matrix(15.3511,3.4879,4.797,-14.3333,325.92,34.987)"
       gradientUnits="userSpaceOnUse"
       y2="0"
       x2="1"
       y1="0"
       x1="0">
      <stop
         id="stop28924"
         offset="0"
         style="stop-opacity:1;stop-color:#48a839" />
      <stop
         id="stop28926"
         offset="1"
         style="stop-opacity:1;stop-color:#89cc6d" />
    </linearGradient>
    <clipPath
       id="clipPath28886"
       clipPathUnits="userSpaceOnUse">
      <path
         id="path28888"
         d="m 337.456,19.685 c 0,0 9.468,6.236 7.25,19.187 -2.136,9.409 -7.18,12.502 -7.722,13.684 -0.597,0.835 -1.198,2.316 -1.198,2.316 l 0.403,-26.217 c 0,0 -0.833,-8.005 1.267,-8.97" />
    </clipPath>
    <linearGradient
       id="linearGradient28898"
       spreadMethod="pad"
       gradientTransform="matrix(8.771,-34.0489,-36.6353,-5.8737,334.249,54.626)"
       gradientUnits="userSpaceOnUse"
       y2="0"
       x2="1"
       y1="0"
       x1="0">
      <stop
         id="stop28900"
         offset="0"
         style="stop-opacity:1;stop-color:#50a341" />
      <stop
         id="stop28902"
         offset="1"
         style="stop-opacity:1;stop-color:#439036" />
    </linearGradient>
    <clipPath
       id="clipPath28862"
       clipPathUnits="userSpaceOnUse">
      <path
         id="path28864"
         d="m 336.869,14.359 -1.09,0.361 c 0,0 0.139,5.515 -1.851,5.901 -1.311,1.519 0.202,64.914 4.967,0.217 0,0 -1.631,-0.819 -1.94,-2.209 -0.308,-1.392 -0.086,-4.27 -0.086,-4.27" />
    </clipPath>
    <linearGradient
       id="linearGradient28874"
       spreadMethod="pad"
       gradientTransform="matrix(12.5257,-4.226,-3.8121,-11.2408,329.66,34.265)"
       gradientUnits="userSpaceOnUse"
       y2="0"
       x2="1"
       y1="0"
       x1="0">
      <stop
         id="stop28876"
         offset="0"
         style="stop-opacity:1;stop-color:#949869" />
      <stop
         id="stop28878"
         offset="1"
         style="stop-opacity:1;stop-color:#fdfcf0" />
    </linearGradient>
    <clipPath
       id="clipPath28852"
       clipPathUnits="userSpaceOnUse">
      <path
         id="path28854"
         d="M 0,0 485,0 485,428 0,428 0,0 Z" />
    </clipPath>
    <clipPath
       id="clipPath29048"
       clipPathUnits="userSpaceOnUse">
      <path
         id="path29050"
         d="M 0,0 485,0 485,428 0,428 0,0 Z" />
    </clipPath>
    <clipPath
       id="clipPath29024"
       clipPathUnits="userSpaceOnUse">
      <path
         id="path29026"
         d="m 20.224,379.336 c 0,0 -8.881,6.059 -8.37,16.75 0.511,10.69 6.784,15.947 8.006,16.9 0.79,0.842 0.822,1.167 0.883,1.997 0.554,-1.189 0.462,-17.763 0.52,-19.7 0.228,-7.541 -0.417,-14.523 -1.039,-15.947" />
    </clipPath>
    <linearGradient
       id="linearGradient29036"
       spreadMethod="pad"
       gradientTransform="matrix(15.3511,3.4879,4.797,-14.3333,10.9202,394.9868)"
       gradientUnits="userSpaceOnUse"
       y2="0"
       x2="1"
       y1="0"
       x1="0">
      <stop
         id="stop29038"
         offset="0"
         style="stop-opacity:1;stop-color:#48a839" />
      <stop
         id="stop29040"
         offset="1"
         style="stop-opacity:1;stop-color:#89cc6d" />
    </linearGradient>
    <clipPath
       id="clipPath29000"
       clipPathUnits="userSpaceOnUse">
      <path
         id="path29002"
         d="m 22.456,379.685 c 0,0 9.468,6.236 7.25,19.187 -2.136,9.409 -7.18,12.502 -7.722,13.683 -0.597,0.836 -1.198,2.317 -1.198,2.317 l 0.403,-26.217 c 0,0 -0.833,-8.005 1.267,-8.97" />
    </clipPath>
    <linearGradient
       id="linearGradient29012"
       spreadMethod="pad"
       gradientTransform="matrix(8.771,-34.0489,-36.6353,-5.8737,19.2491,414.6257)"
       gradientUnits="userSpaceOnUse"
       y2="0"
       x2="1"
       y1="0"
       x1="0">
      <stop
         id="stop29014"
         offset="0"
         style="stop-opacity:1;stop-color:#50a341" />
      <stop
         id="stop29016"
         offset="1"
         style="stop-opacity:1;stop-color:#439036" />
    </linearGradient>
    <clipPath
       id="clipPath28976"
       clipPathUnits="userSpaceOnUse">
      <path
         id="path28978"
         d="m 21.869,374.359 -1.09,0.361 c 0,0 0.139,5.515 -1.851,5.901 -1.311,1.519 0.202,64.914 4.967,0.217 0,0 -1.631,-0.819 -1.939,-2.209 -0.309,-1.392 -0.087,-4.27 -0.087,-4.27" />
    </clipPath>
    <linearGradient
       id="linearGradient28988"
       spreadMethod="pad"
       gradientTransform="matrix(12.5257,-4.226,-3.8121,-11.2408,14.6604,394.2645)"
       gradientUnits="userSpaceOnUse"
       y2="0"
       x2="1"
       y1="0"
       x1="0">
      <stop
         id="stop28990"
         offset="0"
         style="stop-opacity:1;stop-color:#949869" />
      <stop
         id="stop28992"
         offset="1"
         style="stop-opacity:1;stop-color:#fdfcf0" />
    </linearGradient>
  </defs>
  <metadata
     id="metadata28068">
    <rdf:RDF>
      <cc:Work
         rdf:about="">
        <dc:format>image/svg+xml</dc:format>
        <dc:type
           rdf:resource="http://purl.org/dc/dcmitype/StillImage" />
        <dc:title></dc:title>
      </cc:Work>
    </rdf:RDF>
  </metadata>
  <g
     transform="translate(0,-852.36216)"
     id="layer1">
    <rect
       ry="20"
       rx="20"
       y="852.36218"
       x="0"
       height="200"
       width="200"
       id="rect29914"
       style="opacity:1;fill:#424144;fill-opacity:1;stroke:none;stroke-width:5;stroke-miterlimit:4;stroke-dasharray:none;stroke-opacity:1" />
    <g
       transform="matrix(1.4881591,0,0,1.4881591,-48.81591,-464.90424)"
       id="g29918">
      <g
         transform="matrix(2.5,0,0,-2.5,-739.84378,1039.0395)"
         id="g28858">
        <g
           id="g28860"
           clip-path="url(#clipPath28862)">
          <g
             id="g28866">
            <g
               id="g28872">
              <path
                 d="M 0,0 485,0 485,428 0,428 0,0 Z"
                 style="fill:url(#linearGradient28874);stroke:none"
                 id="path28880" />
            </g>
          </g>
        </g>
      </g>
      <g
         transform="matrix(2.5,0,0,-2.5,-739.84378,1039.0395)"
         id="g28882">
        <g
           id="g28884"
           clip-path="url(#clipPath28886)">
          <g
             id="g28890">
            <g
               id="g28896">
              <path
                 d="M 0,0 485,0 485,428 0,428 0,0 Z"
                 style="fill:url(#linearGradient28898);stroke:none"
                 id="path28904" />
            </g>
          </g>
        </g>
      </g>
      <g
         transform="matrix(2.5,0,0,-2.5,-739.84378,1039.0395)"
         id="g28906">
        <g
           id="g28908"
           clip-path="url(#clipPath28910)">
          <g
             id="g28914">
            <g
               id="g28920">
              <path
                 d="M 0,0 485,0 485,428 0,428 0,0 Z"
                 style="fill:url(#linearGradient28922);stroke:none"
                 id="path28928" />
            </g>
          </g>
        </g>
      </g>
      <g
         transform="matrix(2.5,0,0,-2.5,47.655256,1939.0398)"
         id="g28972">
        <g
           id="g28974"
           clip-path="url(#clipPath28976)">
          <g
             id="g28980">
            <g
               id="g28986">
              <path
                 d="M 0,0 485,0 485,428 0,428 0,0 Z"
                 style="fill:url(#linearGradient28988);stroke:none"
                 id="path28994" />
            </g>
          </g>
        </g>
      </g>
      <g
         transform="matrix(2.5,0,0,-2.5,47.655256,1939.0398)"
         id="g28996">
        <g
           id="g28998"
           clip-path="url(#clipPath29000)">
          <g
             id="g29004">
            <g
               id="g29010">
              <path
                 d="M 0,0 485,0 485,428 0,428 0,0 Z"
                 style="fill:url(#linearGradient29012);stroke:none"
                 id="path29018" />
            </g>
          </g>
        </g>
      </g>
      <g
         transform="matrix(2.5,0,0,-2.5,47.655256,1939.0398)"
         id="g29020">
        <g
           id="g29022"
           clip-path="url(#clipPath29024)">
          <g
             id="g29028">
            <g
               id="g29034">
              <path
                 d="M 0,0 485,0 485,428 0,428 0,0 Z"
                 style="fill:url(#linearGradient29036);stroke:none"
                 id="path29042" />
            </g>
          </g>
        </g>
      </g>
    </g>
  </g>
</svg>
